<svg width="1177" height="874" viewBox="0 0 1177 874" fill="none" xmlns="http://www.w3.org/2000/svg">
<mask id="path-1-inside-1" fill="white">
<path d="M309.732 249.217C309.358 246.264 308.603 243.372 307.484 240.613C307.342 240.091 307.092 239.605 306.751 239.185C306.41 238.765 305.986 238.421 305.504 238.174C304.861 238.007 304.186 237.999 303.54 238.152L293.452 239.696C292.608 239.734 291.8 240.048 291.151 240.59C289.837 241.972 291.131 244.196 291.09 246.103C291.045 248.246 289.141 249.986 287.075 250.562C284.967 250.988 282.793 250.961 280.696 250.483L266.591 248.291C270.745 246.964 274.442 244.497 277.261 241.17C279.117 238.971 280.105 234.866 277.422 233.824C276.625 233.606 275.794 233.539 274.973 233.628C268.582 233.677 263.553 228.342 257.57 226.094C253.741 224.749 249.585 224.649 245.696 225.809C241.806 226.968 238.383 229.328 235.916 232.55L243.43 232.912C244.137 232.873 244.838 233.06 245.431 233.446C247.078 234.799 245.031 237.398 245.263 239.516C245.564 242.269 249.219 242.856 251.974 243.135C254.729 243.413 258.224 245.651 256.898 248.083C243.052 252.852 228.961 238.759 214.419 240.494C210.739 240.933 207.264 242.379 203.67 243.288C181.719 248.842 159.026 234.024 136.602 237.162C131.617 238.012 126.718 239.304 121.962 241.023C118.91 242.025 115.727 243.108 113.509 245.432C111.292 247.756 110.448 251.731 112.548 254.161C106.758 254.638 100.929 254.084 95.3326 252.524C96.8461 253.366 98.1052 254.599 98.9777 256.095C99.8502 257.59 100.304 259.293 100.291 261.025C91.2506 262.499 82.4493 265.183 74.1241 269.003C75.6779 271.587 77.4927 274.005 79.5401 276.218L68.0947 283.571C71.9615 284.545 73.9607 289.818 71.7121 293.111C75.7215 291.328 78.2063 286.713 82.4937 285.778C85.3025 285.165 88.1606 286.314 90.8252 287.393C93.4897 288.473 96.4184 289.519 99.1768 288.709C101.935 287.899 103.97 284.323 102.217 282.044C114.007 278.604 126.192 276.7 138.47 276.38C139.417 276.261 140.378 276.443 141.215 276.901C142.814 278.01 142.393 280.405 142.307 282.348C142.221 284.291 143.736 286.845 145.472 285.969C143.429 287.741 145.176 291.077 147.136 292.94C149.097 294.804 151.46 297.375 150.259 299.798C149.946 300.431 149.415 300.937 149.113 301.575C148.224 303.46 149.636 305.656 151.302 306.907C152.968 308.159 155.009 309.033 156.167 310.766C157.324 312.498 156.798 315.531 154.729 315.773L148.847 308.305C146.837 310.389 145.459 313 144.873 315.835C151.111 320.934 152.049 331.313 146.827 337.448C144.158 340.583 140.363 342.489 137.051 344.934C133.738 347.38 130.674 350.862 130.682 354.979C130.696 362.092 130.115 368.7 132.78 375.295C137.696 387.455 143.37 399.295 149.771 410.743C151.452 413.749 153.624 417.044 157.029 417.561C152.726 407.085 148.852 396.446 145.408 385.644C147.651 385.653 150.244 385.831 151.559 387.648C152.648 389.153 152.414 391.2 152.752 393.026C153.182 394.796 153.9 396.483 154.877 398.021L175.426 434.625C177.13 437.66 179.084 440.917 182.339 442.146C184.421 442.932 186.829 442.784 188.745 443.915C190.247 444.801 191.258 446.375 192.789 447.21C197.118 449.572 203.138 445.043 207.183 447.862C208.34 448.669 209.076 449.949 210.142 450.872C213.878 454.108 220.007 451.943 224.32 454.357C227.1 455.913 228.541 459.024 230.023 461.843C233.737 468.905 239.747 475.824 247.706 476.386C250.206 476.563 252.76 476.089 255.204 476.645C257.648 477.201 260.054 479.334 259.661 481.809C258.989 486.053 261.086 490.701 260.522 494.96C259.497 502.72 248.49 506.13 247.545 513.9C247.338 515.601 247.662 517.357 247.257 519.022C246.76 521.063 245.228 522.724 244.683 524.753C243.651 528.597 246.405 532.423 249.431 535.009C252.456 537.595 256.065 539.825 257.72 543.446C259.468 547.272 258.609 551.734 259.178 555.903C260.419 565.003 268.279 571.75 276.369 576.1C278.833 577.425 281.479 578.708 283.075 581.007C285.157 584.008 284.949 587.964 285.645 591.55C287.347 600.331 294.74 607.567 294.95 616.51C295.099 622.866 291.566 628.632 289.455 634.629C287.476 640.376 286.76 646.481 287.356 652.529C287.951 658.577 289.844 664.425 292.906 669.675C294.485 672.341 296.373 674.855 297.49 677.745C299.483 682.902 298.836 688.765 300.674 693.98C303.104 700.875 309.78 706.569 309.141 713.852C312.172 720.146 318.864 723.238 325.594 725.112L337.656 728.469C339.965 729.112 342.379 729.76 344.73 729.295C347.082 728.829 349.326 726.876 349.266 724.48C343.351 723.146 337.246 721.727 332.371 718.123C327.495 714.519 324.155 708.1 326.005 702.326C326.862 699.649 328.687 696.557 326.952 694.344C325.959 693.078 324.142 692.747 323.022 691.591C321.274 689.788 321.875 686.76 323.131 684.586C324.388 682.412 326.204 680.47 326.71 678.01C326.966 676.635 326.795 675.214 326.221 673.938C325.646 672.662 324.695 671.592 323.495 670.873C325.731 670.028 327.765 668.723 329.465 667.042C331.035 665.249 331.76 662.485 330.525 660.447C334.192 660.912 338.522 661.14 340.93 658.334C342.852 656.094 342.72 652.745 341.961 649.892C341.201 647.039 339.917 644.268 339.877 641.316C348.337 641.717 356.816 641.43 365.23 640.457C364.013 636.359 361.248 632.897 357.522 630.803C361.332 630.158 364.804 625.596 366.008 621.924C367.212 618.251 366.905 614.251 366.161 610.459C365.875 609.482 365.836 608.45 366.047 607.455C366.476 606.088 367.819 605.253 369.062 604.539L387.976 593.677C389.105 593.111 390.128 592.356 391.001 591.444C392.983 589.116 392.689 585.602 391.674 582.719C390.66 579.835 389.034 577.123 388.643 574.091C387.474 565.024 397.181 558.518 400.457 549.982C401.742 546.633 402.004 542.991 402.253 539.412C402.52 535.568 402.54 531.103 399.589 528.625C396.759 526.251 392.338 526.78 389.377 524.571C386.663 522.546 385.726 518.613 382.761 516.977C380.068 515.492 376.691 516.437 373.696 515.738C368.422 514.508 365.104 508.43 359.718 507.867C356.679 507.55 353.24 509.035 350.749 507.265C348.555 505.706 348.467 502.572 348.049 499.912C347.317 495.779 345.336 491.969 342.372 488.996C339.409 486.023 335.605 484.029 331.474 483.284C328.341 482.781 324.931 482.972 322.265 481.25C319.566 479.507 318.329 476.243 316.209 473.828C312.792 469.937 307.41 468.554 302.369 467.369L281.863 462.548C278.223 461.693 273.531 461.239 271.578 464.428C271 465.642 270.59 466.929 270.361 468.254C269.629 470.651 268.156 472.754 266.154 474.262C264.151 475.769 261.723 476.602 259.217 476.642C257.498 473.711 254.714 471.557 251.445 470.629C249.366 470.05 247.14 469.985 245.157 469.133C244.077 468.606 243.116 467.864 242.333 466.952C241.549 466.041 240.96 464.979 240.602 463.832C240.243 462.685 240.122 461.477 240.246 460.281C240.371 459.086 240.738 457.929 241.325 456.88C242.507 454.775 242.963 452.34 242.624 449.949C242.284 447.559 241.168 445.347 239.446 443.655C235.959 440.524 230.914 439.768 226.238 440.081C225.014 437.409 227.061 434.394 229.268 432.452C231.475 430.51 234.154 428.601 234.635 425.701C235.39 421.14 229.57 417.675 225.151 419.035C220.732 420.396 217.912 424.688 216.047 428.919C214.977 431.347 214.068 433.903 212.38 435.95C210.693 437.997 207.976 439.463 205.405 438.806C201.767 437.876 200.361 433.553 199.556 429.884C198.475 424.962 197.389 419.972 197.615 414.939C197.841 409.905 199.538 404.736 203.25 401.328C209.299 395.775 218.578 396.319 226.742 397.205C224.813 395.032 225.29 391.37 227.353 389.325C228.443 388.357 229.752 387.669 231.167 387.322C232.582 386.974 234.06 386.977 235.474 387.33C237.934 387.842 240.15 389.167 241.765 391.091C244.085 393.919 244.745 397.738 246.498 400.949C248.252 404.159 252.194 406.897 255.421 405.175C258.209 403.687 258.651 399.822 257.958 396.74C257.264 393.657 255.79 390.66 256.042 387.51C256.521 381.501 262.751 377.883 268.248 375.408C273.745 372.933 280.04 369.605 280.911 363.639C280.941 362.471 281.161 361.316 281.563 360.219C282.173 359.25 283.02 358.453 284.025 357.904C300.069 347.301 316.379 336.569 334.717 330.776C335.671 330.474 335.783 330.809 336.755 330.573C338.116 329.786 337.214 327.611 335.91 326.734C334.605 325.858 332.861 325.186 332.53 323.65C332.287 322.52 332.952 321.411 333.125 320.269C333.55 317.462 330.192 314.87 327.584 315.992C326.111 314.042 329.026 311.775 331.383 311.126C338.46 309.178 345.724 307.992 353.053 307.586C353.899 307.452 354.765 307.599 355.519 308.005C356.75 308.858 356.593 310.814 355.72 312.031C354.848 313.248 353.491 314.012 352.404 315.042C351.216 316.199 350.369 317.66 349.955 319.266C349.541 320.871 349.576 322.56 350.056 324.147C353.882 326.093 358.041 328.096 362.279 327.411C366.516 326.725 370.277 321.964 368.285 318.162C366.431 314.621 360.859 313.822 359.901 309.941C358.779 305.397 365.211 301.356 363.763 296.906C363.128 294.956 361.185 293.809 359.694 292.402C357.934 290.676 356.736 288.459 356.259 286.04C355.782 283.622 356.047 281.115 357.02 278.85C354.592 279.277 352.097 279.116 349.744 278.38C347.391 277.643 345.249 276.354 343.497 274.619C340.263 271.354 337.682 266.205 333.089 266.351C328.875 266.485 325.244 271.402 321.303 269.902C320.333 269.533 319.311 268.782 318.372 269.222C318.064 269.422 317.805 269.689 317.616 270.004C317.427 270.318 317.311 270.671 317.278 271.037C316.277 275.825 318 281.281 315.39 285.419C312.55 289.922 305.981 290.546 302.538 294.606C300.669 296.81 299.945 299.78 298.227 302.104C296.51 304.428 292.863 305.905 290.802 303.88C291.815 301.797 292.092 299.432 291.587 297.172C291.082 294.911 289.825 292.889 288.022 291.435C286.108 290.186 284.044 289.183 281.88 288.448C279.462 287.424 277.162 286.142 275.02 284.624C273.946 283.977 273.074 283.044 272.501 281.929C272.047 280.534 272.108 279.022 272.673 277.668C273.719 274.67 275.563 272.016 278.007 269.99C280.45 267.965 283.401 266.645 286.54 266.174C289.285 265.8 292.48 265.932 294.296 263.841C295.258 262.734 295.762 261.061 297.157 260.611C298.049 260.432 298.976 260.546 299.798 260.937L310.043 264.543C311.186 265.059 312.445 265.267 313.693 265.146C314.312 265.063 314.877 264.749 315.274 264.266C315.67 263.784 315.87 263.169 315.833 262.546C315.505 260.845 312.887 260.028 313.126 258.312C313.259 257.756 313.558 257.253 313.983 256.871C317.681 252.935 322.202 249.866 327.225 247.883C332.247 245.899 337.646 245.051 343.034 245.398C344.328 247.522 342.282 250.037 340.581 251.85C338.879 253.663 337.512 256.903 339.569 258.298C340.413 258.729 341.351 258.94 342.297 258.913C344.82 259.254 347.271 259.998 349.558 261.115C353.099 262.656 356.571 264.341 359.975 266.172C359.675 263.927 359.388 261.563 360.238 259.464C361.089 257.365 363.507 255.719 365.62 256.536C367.655 257.324 368.699 260.019 370.868 260.266C373.76 260.595 374.902 256.322 373.693 253.673C372.485 251.024 370.093 248.806 369.893 245.901C369.759 243.942 370.504 241.511 368.939 240.325C368.382 239.969 367.75 239.747 367.092 239.677L328.008 232.485C325.687 232.058 322.334 232.385 322.231 234.743C322.174 236.059 323.349 237.361 322.829 238.571C322.273 239.862 320.447 239.744 319.118 240.201C317.055 240.91 316.019 243.359 316.218 245.532C316.58 247.69 317.416 249.742 318.666 251.539C316.123 250.476 312.274 250.281 309.732 249.217Z"/>
</mask>
<path d="M309.732 249.217C309.358 246.264 308.603 243.372 307.484 240.613C307.342 240.091 307.092 239.605 306.751 239.185C306.41 238.765 305.986 238.421 305.504 238.174C304.861 238.007 304.186 237.999 303.54 238.152L293.452 239.696C292.608 239.734 291.8 240.048 291.151 240.59C289.837 241.972 291.131 244.196 291.09 246.103C291.045 248.246 289.141 249.986 287.075 250.562C284.967 250.988 282.793 250.961 280.696 250.483L266.591 248.291C270.745 246.964 274.442 244.497 277.261 241.17C279.117 238.971 280.105 234.866 277.422 233.824C276.625 233.606 275.794 233.539 274.973 233.628C268.582 233.677 263.553 228.342 257.57 226.094C253.741 224.749 249.585 224.649 245.696 225.809C241.806 226.968 238.383 229.328 235.916 232.55L243.43 232.912C244.137 232.873 244.838 233.06 245.431 233.446C247.078 234.799 245.031 237.398 245.263 239.516C245.564 242.269 249.219 242.856 251.974 243.135C254.729 243.413 258.224 245.651 256.898 248.083C243.052 252.852 228.961 238.759 214.419 240.494C210.739 240.933 207.264 242.379 203.67 243.288C181.719 248.842 159.026 234.024 136.602 237.162C131.617 238.012 126.718 239.304 121.962 241.023C118.91 242.025 115.727 243.108 113.509 245.432C111.292 247.756 110.448 251.731 112.548 254.161C106.758 254.638 100.929 254.084 95.3326 252.524C96.8461 253.366 98.1052 254.599 98.9777 256.095C99.8502 257.59 100.304 259.293 100.291 261.025C91.2506 262.499 82.4493 265.183 74.1241 269.003C75.6779 271.587 77.4927 274.005 79.5401 276.218L68.0947 283.571C71.9615 284.545 73.9607 289.818 71.7121 293.111C75.7215 291.328 78.2063 286.713 82.4937 285.778C85.3025 285.165 88.1606 286.314 90.8252 287.393C93.4897 288.473 96.4184 289.519 99.1768 288.709C101.935 287.899 103.97 284.323 102.217 282.044C114.007 278.604 126.192 276.7 138.47 276.38C139.417 276.261 140.378 276.443 141.215 276.901C142.814 278.01 142.393 280.405 142.307 282.348C142.221 284.291 143.736 286.845 145.472 285.969C143.429 287.741 145.176 291.077 147.136 292.94C149.097 294.804 151.46 297.375 150.259 299.798C149.946 300.431 149.415 300.937 149.113 301.575C148.224 303.46 149.636 305.656 151.302 306.907C152.968 308.159 155.009 309.033 156.167 310.766C157.324 312.498 156.798 315.531 154.729 315.773L148.847 308.305C146.837 310.389 145.459 313 144.873 315.835C151.111 320.934 152.049 331.313 146.827 337.448C144.158 340.583 140.363 342.489 137.051 344.934C133.738 347.38 130.674 350.862 130.682 354.979C130.696 362.092 130.115 368.7 132.78 375.295C137.696 387.455 143.37 399.295 149.771 410.743C151.452 413.749 153.624 417.044 157.029 417.561C152.726 407.085 148.852 396.446 145.408 385.644C147.651 385.653 150.244 385.831 151.559 387.648C152.648 389.153 152.414 391.2 152.752 393.026C153.182 394.796 153.9 396.483 154.877 398.021L175.426 434.625C177.13 437.66 179.084 440.917 182.339 442.146C184.421 442.932 186.829 442.784 188.745 443.915C190.247 444.801 191.258 446.375 192.789 447.21C197.118 449.572 203.138 445.043 207.183 447.862C208.34 448.669 209.076 449.949 210.142 450.872C213.878 454.108 220.007 451.943 224.32 454.357C227.1 455.913 228.541 459.024 230.023 461.843C233.737 468.905 239.747 475.824 247.706 476.386C250.206 476.563 252.76 476.089 255.204 476.645C257.648 477.201 260.054 479.334 259.661 481.809C258.989 486.053 261.086 490.701 260.522 494.96C259.497 502.72 248.49 506.13 247.545 513.9C247.338 515.601 247.662 517.357 247.257 519.022C246.76 521.063 245.228 522.724 244.683 524.753C243.651 528.597 246.405 532.423 249.431 535.009C252.456 537.595 256.065 539.825 257.72 543.446C259.468 547.272 258.609 551.734 259.178 555.903C260.419 565.003 268.279 571.75 276.369 576.1C278.833 577.425 281.479 578.708 283.075 581.007C285.157 584.008 284.949 587.964 285.645 591.55C287.347 600.331 294.74 607.567 294.95 616.51C295.099 622.866 291.566 628.632 289.455 634.629C287.476 640.376 286.76 646.481 287.356 652.529C287.951 658.577 289.844 664.425 292.906 669.675C294.485 672.341 296.373 674.855 297.49 677.745C299.483 682.902 298.836 688.765 300.674 693.98C303.104 700.875 309.78 706.569 309.141 713.852C312.172 720.146 318.864 723.238 325.594 725.112L337.656 728.469C339.965 729.112 342.379 729.76 344.73 729.295C347.082 728.829 349.326 726.876 349.266 724.48C343.351 723.146 337.246 721.727 332.371 718.123C327.495 714.519 324.155 708.1 326.005 702.326C326.862 699.649 328.687 696.557 326.952 694.344C325.959 693.078 324.142 692.747 323.022 691.591C321.274 689.788 321.875 686.76 323.131 684.586C324.388 682.412 326.204 680.47 326.71 678.01C326.966 676.635 326.795 675.214 326.221 673.938C325.646 672.662 324.695 671.592 323.495 670.873C325.731 670.028 327.765 668.723 329.465 667.042C331.035 665.249 331.76 662.485 330.525 660.447C334.192 660.912 338.522 661.14 340.93 658.334C342.852 656.094 342.72 652.745 341.961 649.892C341.201 647.039 339.917 644.268 339.877 641.316C348.337 641.717 356.816 641.43 365.23 640.457C364.013 636.359 361.248 632.897 357.522 630.803C361.332 630.158 364.804 625.596 366.008 621.924C367.212 618.251 366.905 614.251 366.161 610.459C365.875 609.482 365.836 608.45 366.047 607.455C366.476 606.088 367.819 605.253 369.062 604.539L387.976 593.677C389.105 593.111 390.128 592.356 391.001 591.444C392.983 589.116 392.689 585.602 391.674 582.719C390.66 579.835 389.034 577.123 388.643 574.091C387.474 565.024 397.181 558.518 400.457 549.982C401.742 546.633 402.004 542.991 402.253 539.412C402.52 535.568 402.54 531.103 399.589 528.625C396.759 526.251 392.338 526.78 389.377 524.571C386.663 522.546 385.726 518.613 382.761 516.977C380.068 515.492 376.691 516.437 373.696 515.738C368.422 514.508 365.104 508.43 359.718 507.867C356.679 507.55 353.24 509.035 350.749 507.265C348.555 505.706 348.467 502.572 348.049 499.912C347.317 495.779 345.336 491.969 342.372 488.996C339.409 486.023 335.605 484.029 331.474 483.284C328.341 482.781 324.931 482.972 322.265 481.25C319.566 479.507 318.329 476.243 316.209 473.828C312.792 469.937 307.41 468.554 302.369 467.369L281.863 462.548C278.223 461.693 273.531 461.239 271.578 464.428C271 465.642 270.59 466.929 270.361 468.254C269.629 470.651 268.156 472.754 266.154 474.262C264.151 475.769 261.723 476.602 259.217 476.642C257.498 473.711 254.714 471.557 251.445 470.629C249.366 470.05 247.14 469.985 245.157 469.133C244.077 468.606 243.116 467.864 242.333 466.952C241.549 466.041 240.96 464.979 240.602 463.832C240.243 462.685 240.122 461.477 240.246 460.281C240.371 459.086 240.738 457.929 241.325 456.88C242.507 454.775 242.963 452.34 242.624 449.949C242.284 447.559 241.168 445.347 239.446 443.655C235.959 440.524 230.914 439.768 226.238 440.081C225.014 437.409 227.061 434.394 229.268 432.452C231.475 430.51 234.154 428.601 234.635 425.701C235.39 421.14 229.57 417.675 225.151 419.035C220.732 420.396 217.912 424.688 216.047 428.919C214.977 431.347 214.068 433.903 212.38 435.95C210.693 437.997 207.976 439.463 205.405 438.806C201.767 437.876 200.361 433.553 199.556 429.884C198.475 424.962 197.389 419.972 197.615 414.939C197.841 409.905 199.538 404.736 203.25 401.328C209.299 395.775 218.578 396.319 226.742 397.205C224.813 395.032 225.29 391.37 227.353 389.325C228.443 388.357 229.752 387.669 231.167 387.322C232.582 386.974 234.06 386.977 235.474 387.33C237.934 387.842 240.15 389.167 241.765 391.091C244.085 393.919 244.745 397.738 246.498 400.949C248.252 404.159 252.194 406.897 255.421 405.175C258.209 403.687 258.651 399.822 257.958 396.74C257.264 393.657 255.79 390.66 256.042 387.51C256.521 381.501 262.751 377.883 268.248 375.408C273.745 372.933 280.04 369.605 280.911 363.639C280.941 362.471 281.161 361.316 281.563 360.219C282.173 359.25 283.02 358.453 284.025 357.904C300.069 347.301 316.379 336.569 334.717 330.776C335.671 330.474 335.783 330.809 336.755 330.573C338.116 329.786 337.214 327.611 335.91 326.734C334.605 325.858 332.861 325.186 332.53 323.65C332.287 322.52 332.952 321.411 333.125 320.269C333.55 317.462 330.192 314.87 327.584 315.992C326.111 314.042 329.026 311.775 331.383 311.126C338.46 309.178 345.724 307.992 353.053 307.586C353.899 307.452 354.765 307.599 355.519 308.005C356.75 308.858 356.593 310.814 355.72 312.031C354.848 313.248 353.491 314.012 352.404 315.042C351.216 316.199 350.369 317.66 349.955 319.266C349.541 320.871 349.576 322.56 350.056 324.147C353.882 326.093 358.041 328.096 362.279 327.411C366.516 326.725 370.277 321.964 368.285 318.162C366.431 314.621 360.859 313.822 359.901 309.941C358.779 305.397 365.211 301.356 363.763 296.906C363.128 294.956 361.185 293.809 359.694 292.402C357.934 290.676 356.736 288.459 356.259 286.04C355.782 283.622 356.047 281.115 357.02 278.85C354.592 279.277 352.097 279.116 349.744 278.38C347.391 277.643 345.249 276.354 343.497 274.619C340.263 271.354 337.682 266.205 333.089 266.351C328.875 266.485 325.244 271.402 321.303 269.902C320.333 269.533 319.311 268.782 318.372 269.222C318.064 269.422 317.805 269.689 317.616 270.004C317.427 270.318 317.311 270.671 317.278 271.037C316.277 275.825 318 281.281 315.39 285.419C312.55 289.922 305.981 290.546 302.538 294.606C300.669 296.81 299.945 299.78 298.227 302.104C296.51 304.428 292.863 305.905 290.802 303.88C291.815 301.797 292.092 299.432 291.587 297.172C291.082 294.911 289.825 292.889 288.022 291.435C286.108 290.186 284.044 289.183 281.88 288.448C279.462 287.424 277.162 286.142 275.02 284.624C273.946 283.977 273.074 283.044 272.501 281.929C272.047 280.534 272.108 279.022 272.673 277.668C273.719 274.67 275.563 272.016 278.007 269.99C280.45 267.965 283.401 266.645 286.54 266.174C289.285 265.8 292.48 265.932 294.296 263.841C295.258 262.734 295.762 261.061 297.157 260.611C298.049 260.432 298.976 260.546 299.798 260.937L310.043 264.543C311.186 265.059 312.445 265.267 313.693 265.146C314.312 265.063 314.877 264.749 315.274 264.266C315.67 263.784 315.87 263.169 315.833 262.546C315.505 260.845 312.887 260.028 313.126 258.312C313.259 257.756 313.558 257.253 313.983 256.871C317.681 252.935 322.202 249.866 327.225 247.883C332.247 245.899 337.646 245.051 343.034 245.398C344.328 247.522 342.282 250.037 340.581 251.85C338.879 253.663 337.512 256.903 339.569 258.298C340.413 258.729 341.351 258.94 342.297 258.913C344.82 259.254 347.271 259.998 349.558 261.115C353.099 262.656 356.571 264.341 359.975 266.172C359.675 263.927 359.388 261.563 360.238 259.464C361.089 257.365 363.507 255.719 365.62 256.536C367.655 257.324 368.699 260.019 370.868 260.266C373.76 260.595 374.902 256.322 373.693 253.673C372.485 251.024 370.093 248.806 369.893 245.901C369.759 243.942 370.504 241.511 368.939 240.325C368.382 239.969 367.75 239.747 367.092 239.677L328.008 232.485C325.687 232.058 322.334 232.385 322.231 234.743C322.174 236.059 323.349 237.361 322.829 238.571C322.273 239.862 320.447 239.744 319.118 240.201C317.055 240.91 316.019 243.359 316.218 245.532C316.58 247.69 317.416 249.742 318.666 251.539C316.123 250.476 312.274 250.281 309.732 249.217Z" stroke="#007BFF" stroke-width="4" mask="url(#path-1-inside-1)"/>
<mask id="path-2-inside-2" fill="white">
<path d="M278.547 216.04C276.082 215.224 273.427 215.186 270.94 215.931C268.453 216.676 266.255 218.168 264.644 220.204C264.001 221.051 263.46 222.219 263.999 223.136C264.772 224.452 266.74 223.932 268.191 223.462C270.323 222.7 272.645 222.644 274.811 223.304C276.174 223.772 277.393 224.598 278.761 225.049C279.428 225.327 280.157 225.419 280.871 225.315C281.586 225.21 282.258 224.913 282.817 224.456C283.756 223.498 283.815 222.009 283.817 220.667C283.882 220.219 283.846 219.761 283.712 219.328C283.577 218.894 283.348 218.497 283.04 218.163C282.493 217.846 281.877 217.664 281.245 217.632C279.829 217.37 278.549 216.622 277.625 215.517"/>
</mask>
<path d="M264.644 220.204L263.076 218.963L263.064 218.978L263.052 218.994L264.644 220.204ZM263.999 223.136L262.274 224.149L262.275 224.149L263.999 223.136ZM268.191 223.462L268.808 225.364L268.836 225.355L268.864 225.345L268.191 223.462ZM274.811 223.304L275.461 221.412L275.428 221.401L275.394 221.391L274.811 223.304ZM278.761 225.049L279.533 223.203L279.461 223.173L279.386 223.149L278.761 225.049ZM282.817 224.456L284.085 226.003L284.169 225.934L284.245 225.856L282.817 224.456ZM283.817 220.667L281.838 220.38L281.817 220.522L281.817 220.665L283.817 220.667ZM283.04 218.163L284.51 216.807L284.305 216.584L284.043 216.433L283.04 218.163ZM281.245 217.632L280.881 219.599L281.012 219.623L281.145 219.63L281.245 217.632ZM279.175 214.141C276.321 213.197 273.246 213.153 270.366 214.015L271.513 217.847C273.607 217.22 275.843 217.252 277.919 217.939L279.175 214.141ZM270.366 214.015C267.486 214.878 264.941 216.605 263.076 218.963L266.213 221.444C267.569 219.73 269.419 218.474 271.513 217.847L270.366 214.015ZM263.052 218.994C262.643 219.532 262.197 220.258 261.957 221.088C261.713 221.933 261.639 223.066 262.274 224.149L265.724 222.124C265.821 222.289 265.748 222.379 265.8 222.199C265.856 222.005 266.002 221.722 266.237 221.413L263.052 218.994ZM262.275 224.149C263.196 225.718 264.798 226.003 265.903 225.968C266.987 225.934 268.084 225.599 268.808 225.364L267.574 221.559C266.846 221.795 266.234 221.955 265.777 221.97C265.566 221.977 265.505 221.946 265.532 221.957C265.595 221.983 265.68 222.05 265.724 222.124L262.275 224.149ZM268.864 225.345C270.592 224.728 272.473 224.683 274.229 225.217L275.394 221.391C272.816 220.606 270.055 220.672 267.518 221.578L268.864 225.345ZM274.162 225.195C274.697 225.379 275.221 225.639 275.893 225.973C276.523 226.287 277.295 226.671 278.136 226.948L279.386 223.149C278.86 222.975 278.337 222.722 277.675 222.392C277.055 222.084 276.289 221.697 275.461 221.412L274.162 225.195ZM277.99 226.894C278.991 227.312 280.087 227.451 281.161 227.294L280.582 223.336C280.227 223.388 279.864 223.342 279.533 223.203L277.99 226.894ZM281.161 227.294C282.234 227.137 283.245 226.691 284.085 226.003L281.55 222.909C281.272 223.136 280.937 223.284 280.582 223.336L281.161 227.294ZM284.245 225.856C285.076 225.008 285.451 223.989 285.629 223.099C285.804 222.226 285.816 221.342 285.817 220.67L281.817 220.665C281.816 221.334 281.797 221.865 281.708 222.312C281.621 222.741 281.497 222.946 281.389 223.056L284.245 225.856ZM285.796 220.955C285.904 220.211 285.844 219.453 285.622 218.735L281.801 219.92C281.848 220.069 281.86 220.226 281.838 220.38L285.796 220.955ZM285.622 218.735C285.4 218.018 285.02 217.359 284.51 216.807L281.571 219.52C281.676 219.634 281.755 219.771 281.801 219.92L285.622 218.735ZM284.043 216.433C283.22 215.956 282.295 215.682 281.345 215.635L281.145 219.63C281.459 219.645 281.765 219.736 282.038 219.894L284.043 216.433ZM281.609 215.666C280.651 215.488 279.785 214.982 279.16 214.235L276.091 216.8C277.313 218.262 279.007 219.252 280.881 219.599L281.609 215.666Z" fill="#007BFF" mask="url(#path-2-inside-2)"/>
<mask id="path-4-inside-3" fill="white">
<path d="M292.64 212.116C292.088 212.086 291.538 212.199 291.043 212.443C290.547 212.687 290.123 213.054 289.81 213.509C289.498 213.965 289.307 214.493 289.258 215.043C289.209 215.593 289.302 216.147 289.528 216.651C291.222 217.113 292.991 217.228 294.731 216.99C295.599 216.855 296.407 216.467 297.054 215.873C297.701 215.28 298.158 214.508 298.368 213.656C296.32 214.028 294.206 213.625 292.44 212.524"/>
</mask>
<path d="M289.528 216.651L287.704 217.47L288.091 218.332L289.002 218.58L289.528 216.651ZM294.731 216.99L295.002 218.971L295.02 218.969L295.038 218.966L294.731 216.99ZM298.368 213.656L300.31 214.132L301.046 211.135L298.01 211.688L298.368 213.656ZM292.748 210.119C291.854 210.071 290.963 210.253 290.159 210.648L291.926 214.237C292.114 214.144 292.322 214.102 292.531 214.113L292.748 210.119ZM290.159 210.648C289.356 211.044 288.668 211.639 288.161 212.378L291.459 214.641C291.577 214.468 291.738 214.329 291.926 214.237L290.159 210.648ZM288.161 212.378C287.654 213.116 287.346 213.972 287.266 214.864L291.25 215.222C291.269 215.014 291.341 214.813 291.459 214.641L288.161 212.378ZM287.266 214.864C287.186 215.756 287.337 216.654 287.704 217.47L291.352 215.831C291.266 215.64 291.231 215.43 291.25 215.222L287.266 214.864ZM289.002 218.58C290.955 219.113 292.996 219.246 295.002 218.971L294.46 215.008C292.987 215.21 291.488 215.112 290.054 214.721L289.002 218.58ZM295.038 218.966C296.296 218.771 297.467 218.208 298.406 217.348L295.702 214.399C295.346 214.726 294.902 214.939 294.424 215.014L295.038 218.966ZM298.406 217.348C299.344 216.487 300.006 215.369 300.31 214.132L296.425 213.179C296.31 213.648 296.059 214.073 295.702 214.399L298.406 217.348ZM298.01 211.688C296.451 211.972 294.842 211.664 293.498 210.826L291.382 214.221C293.57 215.585 296.188 216.085 298.726 215.623L298.01 211.688Z" fill="#007BFF" mask="url(#path-4-inside-3)"/>
<path d="M328.888 210.142C332.504 208.569 336.27 207.362 340.131 206.541C341.162 206.322 342.25 206.118 343.301 206.091C344.352 206.064 345.286 206.218 346.047 206.647C346.688 207.008 347.04 207.632 347.434 208.529C347.468 208.605 347.502 208.685 347.538 208.767C347.694 209.128 347.871 209.536 348.073 209.9C348.33 210.361 348.677 210.849 349.202 211.21C351.499 212.794 354.137 212.244 356.431 211.276C357.598 210.784 358.754 210.151 359.835 209.537C360.078 209.399 360.316 209.263 360.549 209.129C361.374 208.657 362.142 208.217 362.867 207.853C373.064 202.784 384.612 201.128 395.807 203.113C395.548 203.761 394.968 204.295 394.077 204.74C392.833 205.363 391.185 205.693 389.688 205.823L389.775 206.82L389.688 205.823C383.102 206.396 376.553 207.329 370.069 208.615C368.993 208.749 367.966 209.144 367.078 209.767L367.044 209.791L367.012 209.818C366.031 210.636 365.619 211.789 365.32 212.717C365.278 212.849 365.237 212.976 365.198 213.1C364.935 213.931 364.729 214.581 364.341 215.113C363.754 215.918 362.895 216.315 361.727 216.467C360.524 216.624 359.135 216.506 357.605 216.374L357.593 216.373C356.126 216.247 354.516 216.109 353.078 216.322C351.594 216.542 350.173 217.152 349.22 218.605L349.187 218.655L349.16 218.708C348.702 219.63 348.299 220.578 347.953 221.547C347.45 222.384 346.752 223.088 345.919 223.597C345.061 224.121 344.086 224.424 343.082 224.477C340.854 224.569 338.627 224.284 336.493 223.635L336.467 223.627L336.44 223.62C335.825 223.47 335.259 223.305 334.801 223.067C334.378 222.847 334.123 222.603 333.992 222.324C333.83 221.687 333.82 221.02 333.96 220.378L333.976 220.307L333.981 220.235C334.148 217.878 333.555 215.53 332.287 213.537C331.413 212.162 330.249 211.005 328.888 210.142Z" stroke="#007BFF" stroke-width="2"/>
<path d="M383.908 212.799L381.363 212.311C383.131 211.661 385.015 211.321 386.986 211.087C387.932 210.974 388.915 210.886 389.914 210.797C391.982 210.611 394.12 210.419 396.141 209.995C397.887 209.629 399.287 208.926 400.556 208.222C400.8 208.087 401.037 207.953 401.27 207.821C402.273 207.254 403.195 206.733 404.253 206.339C405.76 205.779 407.502 205.554 409.369 205.453C410.299 205.403 411.241 205.384 412.19 205.365L412.222 205.365C413.154 205.346 414.094 205.328 415.003 205.278L468.583 202.341C477.731 201.84 486.833 201.345 495.872 202.095C498.51 202.314 500.983 202.693 502.765 204.132C503.599 204.805 504.215 205.847 504.428 206.914C504.64 207.976 504.439 208.948 503.82 209.626C503.431 210.052 502.905 210.364 502.221 210.715C502.124 210.764 502.023 210.815 501.919 210.868C501.335 211.162 500.646 211.508 500.048 211.97C498.008 213.545 497.402 215.894 497.454 218.219C497.497 220.128 497.979 222.127 498.568 223.915L478.914 227.586L478.536 227.657L478.302 227.963C477.472 229.053 477.464 230.34 477.776 231.447C478.086 232.545 478.736 233.582 479.434 234.378C479.679 234.658 479.916 234.914 480.143 235.16C480.562 235.614 480.95 236.034 481.307 236.508C481.827 237.2 482.14 237.84 482.19 238.518C482.246 239.286 481.929 240.044 481.309 240.714C480.686 241.387 479.804 241.911 478.895 242.17C477.945 242.44 476.938 242.524 475.851 242.549C475.463 242.558 475.044 242.559 474.612 242.56C473.902 242.561 473.158 242.563 472.464 242.6C468.297 242.825 464.484 244.293 460.858 246.078C459.273 246.858 457.705 247.708 456.157 248.547C455.936 248.667 455.715 248.787 455.494 248.907C453.723 249.865 451.973 250.797 450.201 251.612C445.554 253.75 440.623 255.125 435.61 256.523C434.448 256.847 433.281 257.173 432.113 257.509C430.421 257.996 428.562 258.604 426.929 259.522C425.288 260.444 423.809 261.715 422.965 263.558C422.165 265.306 422.1 267.301 422.043 269.033C422.036 269.257 422.029 269.477 422.02 269.691C421.941 271.679 421.749 273.264 420.767 274.467C420.027 275.373 418.956 275.899 417.643 276.186C416.32 276.476 414.84 276.505 413.374 276.484C411.353 276.454 409.302 276.375 407.429 275.959C405.578 275.548 403.975 274.824 402.775 273.561C401.49 271.966 400.564 270.112 400.062 268.126L400.053 268.091L400.042 268.057C399.108 265.233 398.226 262.272 397.95 259.414C397.675 256.566 398.011 253.905 399.427 251.621C400.002 250.694 400.741 249.865 401.56 248.991C401.674 248.87 401.79 248.747 401.907 248.622C402.611 247.876 403.361 247.081 404.014 246.211C405.53 244.191 406.728 241.077 405.304 238.443C405.037 237.948 404.678 237.491 404.385 237.118C404.324 237.04 404.265 236.966 404.211 236.896C403.866 236.447 403.637 236.098 403.523 235.732C403.365 235.219 403.419 234.646 403.613 233.897C403.684 233.625 403.764 233.36 403.85 233.073C403.884 232.96 403.919 232.844 403.955 232.723C404.077 232.311 404.202 231.861 404.282 231.398C404.829 228.239 403.207 225.598 400.888 223.793C398.575 221.992 395.439 220.9 392.532 220.777C390.513 220.692 388.439 220.864 386.447 221.03C385.694 221.092 384.953 221.154 384.231 221.2C381.783 221.357 379.472 221.352 377.282 220.753C377.297 220.107 377.415 219.467 377.631 218.855C377.922 218.034 378.384 217.285 378.987 216.657C379.59 216.029 380.32 215.537 381.129 215.213C381.937 214.889 382.805 214.742 383.675 214.781L383.908 212.799Z" stroke="#007BFF" stroke-width="2"/>
<path d="M476.706 256.178L476.637 257.176C480.379 257.436 484.12 256.673 487.461 254.969C487.901 254.769 488.306 254.573 488.688 254.388C489.622 253.935 490.426 253.546 491.309 253.325C492.442 253.042 493.647 253.072 495.196 253.909L495.666 253.039L495.196 253.909C496.438 254.58 497.23 255.168 497.7 255.664C498.167 256.157 498.246 256.481 498.246 256.656C498.246 256.829 498.167 257.074 497.844 257.407C497.517 257.744 497.01 258.095 496.335 258.45C494.988 259.159 493.199 259.768 491.467 260.311C491.109 260.424 490.749 260.534 490.395 260.643C489.108 261.038 487.905 261.408 487.16 261.745L487.16 261.745C486.199 262.18 485.292 262.804 484.48 263.362C484.247 263.522 484.023 263.677 483.807 263.82C482.785 264.497 481.879 264.988 480.891 265.119C480.06 265.187 479.226 265.032 478.474 264.672C477.718 264.31 477.072 263.752 476.604 263.057C475.629 261.545 475.26 259.721 475.57 257.948L475.58 257.893L475.583 257.837C475.595 257.643 475.662 257.458 475.775 257.302C476.01 257.173 476.283 257.124 476.55 257.166L476.706 256.178Z" stroke="#007BFF" stroke-width="2"/>
<path d="M567.334 210.508L567.369 210.494L567.403 210.477C569.637 209.363 575.517 207.824 581.287 207.265C584.159 206.987 586.927 206.96 589.146 207.324C591.425 207.698 592.835 208.435 593.406 209.414C593.785 210.064 593.892 210.61 593.863 211.067C593.834 211.531 593.659 211.984 593.353 212.433C592.72 213.36 591.608 214.149 590.527 214.756C589.834 215.145 589.361 215.318 589.023 215.411C588.851 215.459 588.701 215.489 588.552 215.517C588.531 215.521 588.508 215.525 588.485 215.529C588.358 215.552 588.201 215.581 588.055 215.619C587.624 215.73 587.238 215.93 586.842 216.347C586.495 216.713 586.143 217.244 585.71 217.991C585.324 218.658 585.21 219.325 585.167 219.889C585.149 220.119 585.142 220.349 585.136 220.549C585.135 220.588 585.134 220.625 585.133 220.66C585.125 220.897 585.116 221.088 585.093 221.262C585.05 221.592 584.968 221.788 584.816 221.952C584.65 222.13 584.305 222.37 583.542 222.579C582.063 222.853 580.542 222.801 579.085 222.427L579.004 222.406L578.921 222.399C578.526 222.365 578.148 222.224 577.829 221.99C577.646 221.793 577.565 221.474 577.603 220.726C577.608 220.612 577.619 220.465 577.63 220.305C577.649 220.039 577.67 219.735 577.677 219.488C577.689 219.042 577.671 218.529 577.528 218.017C577.131 216.592 576.013 215.799 574.871 215.368C573.739 214.941 572.44 214.811 571.362 214.778L566.47 214.632L566.439 214.631L566.407 214.632C566.089 214.643 565.773 214.598 565.471 214.501C565.175 214.301 564.959 214.003 564.861 213.658C564.757 213.29 564.796 212.897 564.97 212.557C565.512 211.634 566.343 210.914 567.334 210.508Z" stroke="#007BFF" stroke-width="2"/>
<path d="M660.807 208.161L660.675 207.171L660.807 208.161L663.647 207.782C663.894 207.749 664.182 207.706 664.499 207.659C665.894 207.449 667.855 207.154 669.369 207.28C669.817 207.317 670.173 207.389 670.433 207.487C670.694 207.585 670.789 207.683 670.82 207.729C670.83 207.743 671.051 208.072 670.343 209.222C670.334 209.228 670.325 209.235 670.313 209.242C670.228 209.298 670.097 209.369 669.915 209.457C669.55 209.631 669.074 209.823 668.547 210.027C668.4 210.084 668.249 210.142 668.096 210.201C667.719 210.346 667.335 210.493 666.993 210.633C666.533 210.821 666.046 211.034 665.718 211.253C664.995 211.735 664.457 212.408 664.033 212.939C663.967 213.021 663.904 213.1 663.843 213.175C663.352 213.777 662.945 214.194 662.377 214.425C661.411 214.819 660.364 214.667 659.078 214.201C658.54 214.006 658.002 213.773 657.429 213.525C657.318 213.477 657.206 213.429 657.092 213.379C656.409 213.085 655.679 212.781 654.936 212.56L654.909 212.552L654.882 212.545C653.3 212.169 651.687 211.939 650.063 211.858C648.362 211.677 646.68 211.355 645.036 210.895C650.165 209.585 655.464 208.874 660.807 208.161ZM670.377 209.197C670.377 209.197 670.376 209.198 670.373 209.2C670.375 209.198 670.376 209.197 670.377 209.197Z" stroke="#007BFF" stroke-width="2"/>
<path d="M663.927 231.956L663.927 231.956C663.982 232.795 664.452 233.523 665.277 234.197C666.11 234.878 667.209 235.423 668.31 235.889L676.463 239.341C676.499 239.038 676.464 238.693 676.355 238.302C676.144 237.546 675.684 236.741 675.154 236.031C675.128 235.995 675.101 235.96 675.074 235.924C674.536 235.203 673.891 234.34 673.446 233.422C672.971 232.442 672.663 231.282 673.003 230.041L673.967 230.305L673.003 230.041C673.393 228.618 674.447 227.731 675.57 227.174C676.684 226.621 677.976 226.333 679.073 226.149C679.652 226.051 680.407 225.968 681.217 225.879C681.664 225.829 682.128 225.778 682.589 225.722C683.932 225.557 685.337 225.339 686.583 224.98C687.847 224.615 688.829 224.135 689.428 223.523C689.969 222.97 690.254 222.256 690.034 221.165L691.015 220.968L690.034 221.165C689.762 219.809 689.072 219.041 688.16 218.598C687.192 218.127 685.889 217.985 684.4 218.111C681.423 218.364 678.137 219.647 676.477 220.575C672.754 222.657 669.299 225.187 666.191 228.108L663.927 231.956ZM663.927 231.956C663.885 231.321 664.095 230.684 664.516 230.022M663.927 231.956L664.516 230.022M664.516 230.022C664.94 229.353 665.542 228.718 666.191 228.108L664.516 230.022Z" stroke="#007BFF" stroke-width="2"/>
<path d="M689.283 599.801L689.269 599.818L689.255 599.834C687.492 601.979 685.102 603.519 682.421 604.237C679.808 604.788 676.924 603.928 675.537 601.901C674.289 600.078 674.3 597.497 675.108 595.156C676.024 592.503 677.485 590.054 679.029 587.508C679.081 587.423 679.132 587.339 679.184 587.254C680.663 584.816 682.202 582.279 683.24 579.507C683.662 578.377 684.005 577.307 684.325 576.298C684.341 576.249 684.356 576.2 684.371 576.151C684.676 575.191 684.961 574.293 685.286 573.42C685.96 571.603 686.796 569.923 688.265 568.217C688.75 567.654 689.351 566.776 689.978 565.815C690.338 565.265 690.725 564.658 691.118 564.042C691.413 563.58 691.711 563.112 692.002 562.661C692.694 561.59 693.369 560.576 693.967 559.78C694.266 559.382 694.536 559.053 694.769 558.804C695.015 558.541 695.169 558.425 695.234 558.39C696.566 557.666 697.297 557.807 697.73 558.082C698.257 558.416 698.722 559.174 699.046 560.367C699.683 562.718 699.545 565.921 699.249 567.472C699.249 567.472 699.249 567.472 699.249 567.472L696.43 582.276L696.426 582.295L696.423 582.315C695.844 586.175 694.812 589.953 693.349 593.572C692.32 595.844 690.949 597.945 689.283 599.801Z" stroke="#007BFF" stroke-width="2"/>
<mask id="path-13-inside-4" fill="white">
<path d="M995.345 670.587C993.355 669.81 991.424 668.891 989.567 667.836C987.704 672.956 986.714 678.353 986.637 683.801L1000.25 676.096C1002.3 674.937 1004.62 673.326 1004.58 670.973C1004.6 670.683 1004.54 670.393 1004.4 670.133C1004.27 669.874 1004.07 669.655 1003.83 669.5C1003.52 669.378 1003.19 669.34 1002.87 669.388C1000.85 669.556 999.012 670.55 997.107 671.24C995.203 671.931 992.975 672.296 991.228 671.271"/>
</mask>
<path d="M989.567 667.836L990.554 666.097L988.496 664.928L987.687 667.152L989.567 667.836ZM986.637 683.801L984.638 683.772L984.589 687.258L987.622 685.541L986.637 683.801ZM1000.25 676.096L999.268 674.355L999.268 674.355L1000.25 676.096ZM1004.58 670.973L1002.58 670.846L1002.58 670.929L1002.58 671.011L1004.58 670.973ZM1003.83 669.5L1004.89 667.808L1004.74 667.711L1004.57 667.644L1003.83 669.5ZM1002.87 669.388L1003.04 671.381L1003.1 671.376L1003.17 671.366L1002.87 669.388ZM996.072 668.723C994.172 667.982 992.328 667.104 990.554 666.097L988.579 669.575C990.52 670.677 992.538 671.638 994.618 672.45L996.072 668.723ZM987.687 667.152C985.748 672.483 984.717 678.101 984.638 683.772L988.637 683.829C988.711 678.604 989.66 673.43 991.446 668.519L987.687 667.152ZM987.622 685.541L1001.24 677.836L999.268 674.355L985.652 682.06L987.622 685.541ZM1001.24 677.836C1002.3 677.238 1003.59 676.435 1004.62 675.387C1005.67 674.325 1006.61 672.844 1006.58 670.936L1002.58 671.011C1002.59 671.456 1002.39 671.956 1001.78 672.577C1001.15 673.213 1000.26 673.795 999.268 674.355L1001.24 677.836ZM1006.57 671.1C1006.62 670.451 1006.48 669.802 1006.19 669.223L1002.62 671.043C1002.59 670.983 1002.58 670.915 1002.58 670.846L1006.57 671.1ZM1006.19 669.223C1005.89 668.644 1005.44 668.155 1004.89 667.808L1002.76 671.191C1002.7 671.155 1002.65 671.104 1002.62 671.043L1006.19 669.223ZM1004.57 667.644C1003.94 667.39 1003.25 667.309 1002.58 667.41L1003.17 671.366C1003.14 671.37 1003.11 671.367 1003.08 671.356L1004.57 667.644ZM1002.71 667.395C1001.43 667.501 1000.27 667.863 999.246 668.245C998.736 668.436 998.233 668.643 997.771 668.832C997.297 669.025 996.859 669.203 996.425 669.36L997.789 673.12C998.308 672.932 998.814 672.727 999.284 672.534C999.766 672.338 1000.21 672.156 1000.65 671.991C1001.53 671.661 1002.3 671.443 1003.04 671.381L1002.71 667.395ZM996.425 669.36C994.636 670.009 993.172 670.093 992.24 669.546L990.216 672.996C992.779 674.5 995.769 673.853 997.789 673.12L996.425 669.36Z" fill="#007BFF" mask="url(#path-13-inside-4)"/>
<path d="M1067.43 676.126L1067.46 676.12L1067.48 676.112C1068.28 675.852 1069.24 675.356 1070.2 674.823C1070.61 674.593 1071.02 674.358 1071.44 674.121C1072.03 673.781 1072.63 673.438 1073.26 673.099C1074.3 672.534 1075.3 672.043 1076.21 671.734C1077.13 671.417 1077.81 671.339 1078.27 671.446L1078.5 670.472L1078.27 671.446C1079.02 671.619 1079.49 671.926 1079.79 672.262C1080.08 672.597 1080.25 673.019 1080.28 673.514C1080.35 674.526 1079.85 675.828 1078.76 676.916C1077.67 677.856 1076.43 678.597 1075.09 679.104L1075.06 679.115L1075.03 679.127C1071.02 680.92 1066.84 682.832 1063.33 685.757L1063.3 685.779L1063.28 685.804C1061.93 687.099 1060.47 688.264 1058.9 689.282C1056.29 690.71 1053.1 690.705 1049.76 690.632L1049.71 690.631L1049.66 690.634C1048.63 690.712 1047.6 690.485 1046.69 689.982C1046.42 689.775 1046.21 689.425 1046.14 689.063C1046.09 688.789 1046.13 688.597 1046.2 688.469C1049.29 687.431 1052.58 686.292 1055.34 684.233C1056.52 683.355 1057.59 682.314 1058.61 681.33C1058.86 681.087 1059.1 680.847 1059.35 680.614C1060.6 679.414 1061.82 678.354 1063.24 677.63C1064.6 677.019 1066 676.517 1067.43 676.126Z" stroke="#007BFF" stroke-width="2"/>
<mask id="path-16-inside-5" fill="white">
<path d="M1098.91 654.43C1099.07 652.717 1098.84 650.989 1098.24 649.377C1097.64 647.765 1096.68 646.31 1095.43 645.124C1095.4 648.551 1095.29 652.203 1093.36 655.037C1091.99 657.057 1089.84 658.421 1088.33 660.345C1086.83 662.268 1086.16 665.318 1087.92 667.006C1089.05 667.864 1090.43 668.338 1091.84 668.356C1095.36 668.77 1099.42 669 1101.89 666.462C1103.23 665.076 1103.89 663.024 1105.53 662.005C1106.14 661.749 1106.69 661.358 1107.13 660.862C1107.8 659.785 1106.73 658.366 1105.52 657.978C1104.3 657.59 1102.97 657.773 1101.75 657.404C1100.53 657.036 1099.42 655.666 1100.04 654.558"/>
</mask>
<path d="M1095.43 645.124L1096.81 643.675L1093.48 640.506L1093.43 645.102L1095.43 645.124ZM1093.36 655.037L1095.02 656.162L1095.02 656.162L1093.36 655.037ZM1087.92 667.006L1086.54 668.451L1086.62 668.529L1086.71 668.597L1087.92 667.006ZM1091.84 668.356L1092.08 666.37L1091.97 666.357L1091.87 666.356L1091.84 668.356ZM1101.89 666.462L1103.32 667.855L1103.32 667.855L1101.89 666.462ZM1105.53 662.005L1104.75 660.161L1104.61 660.222L1104.47 660.306L1105.53 662.005ZM1107.13 660.862L1108.62 662.19L1108.73 662.067L1108.82 661.927L1107.13 660.862ZM1100.9 654.621C1101.09 652.606 1100.82 650.574 1100.12 648.677L1096.37 650.077C1096.86 651.405 1097.05 652.829 1096.92 654.24L1100.9 654.621ZM1100.12 648.677C1099.41 646.781 1098.28 645.071 1096.81 643.675L1094.05 646.572C1095.08 647.55 1095.87 648.748 1096.37 650.077L1100.12 648.677ZM1093.43 645.102C1093.39 648.636 1093.24 651.657 1091.71 653.913L1095.02 656.162C1097.34 652.749 1097.4 648.467 1097.43 645.145L1093.43 645.102ZM1091.71 653.913C1091.16 654.714 1090.44 655.422 1089.54 656.261C1088.68 657.053 1087.63 657.997 1086.76 659.112L1089.91 661.577C1090.54 660.769 1091.31 660.068 1092.26 659.193C1093.15 658.364 1094.19 657.381 1095.02 656.162L1091.71 653.913ZM1086.76 659.112C1085.8 660.337 1085.09 661.925 1084.91 663.543C1084.73 665.176 1085.08 667.054 1086.54 668.451L1089.31 665.56C1089 665.269 1088.8 664.779 1088.89 663.984C1088.98 663.175 1089.36 662.276 1089.91 661.577L1086.76 659.112ZM1086.71 668.597C1088.18 669.715 1089.97 670.332 1091.82 670.356L1091.87 666.356C1090.88 666.343 1089.92 666.013 1089.13 665.414L1086.71 668.597ZM1091.61 670.342C1093.38 670.551 1095.48 670.74 1097.49 670.502C1099.53 670.262 1101.66 669.567 1103.32 667.855L1100.45 665.068C1099.65 665.895 1098.52 666.353 1097.03 666.53C1095.51 666.708 1093.82 666.574 1092.08 666.37L1091.61 670.342ZM1103.32 667.855C1104.17 666.985 1104.82 665.875 1105.27 665.197C1105.79 664.411 1106.16 663.967 1106.58 663.704L1104.47 660.306C1103.26 661.062 1102.48 662.154 1101.93 662.994C1101.3 663.943 1100.96 664.552 1100.45 665.068L1103.32 667.855ZM1106.3 663.849C1107.19 663.477 1107.98 662.91 1108.62 662.19L1105.63 659.534C1105.39 659.806 1105.09 660.02 1104.75 660.161L1106.3 663.849ZM1108.82 661.927C1109.7 660.527 1109.31 659.046 1108.73 658.103C1108.14 657.172 1107.19 656.415 1106.13 656.074L1104.91 659.883C1104.96 659.9 1105.05 659.942 1105.14 660.015C1105.23 660.088 1105.3 660.165 1105.33 660.221C1105.37 660.28 1105.35 660.269 1105.34 660.181C1105.33 660.133 1105.34 660.068 1105.35 659.994C1105.37 659.918 1105.4 659.851 1105.43 659.797L1108.82 661.927ZM1106.13 656.074C1105.26 655.797 1104.39 655.736 1103.79 655.69C1103.11 655.637 1102.69 655.6 1102.33 655.49L1101.17 659.318C1102.03 659.577 1102.89 659.633 1103.48 659.678C1104.15 659.73 1104.56 659.772 1104.91 659.883L1106.13 656.074ZM1102.33 655.49C1102.27 655.471 1102.17 655.427 1102.07 655.354C1101.97 655.28 1101.9 655.202 1101.87 655.145C1101.83 655.085 1101.85 655.091 1101.86 655.173C1101.86 655.217 1101.86 655.278 1101.85 655.35C1101.84 655.423 1101.81 655.488 1101.78 655.54L1098.3 653.576C1097.49 655.003 1097.93 656.453 1098.54 657.373C1099.15 658.28 1100.12 658.999 1101.17 659.318L1102.33 655.49Z" fill="#007BFF" mask="url(#path-16-inside-5)"/>
<path d="M1044 545.881C1045.61 548.121 1047.7 549.95 1050.11 551.244C1049.54 551.211 1048.96 551.104 1048.37 550.933C1046.73 550.458 1045.09 549.505 1043.72 548.383C1043.02 547.811 1042.33 547.194 1041.64 546.556C1041.52 546.449 1041.41 546.341 1041.29 546.233C1040.71 545.701 1040.12 545.157 1039.52 544.635C1038.07 543.377 1036.48 542.183 1034.59 541.426C1032.11 540.434 1029.52 540.338 1027.01 540.506C1025.76 540.59 1024.5 540.74 1023.28 540.887L1023.25 540.89C1022.01 541.039 1020.8 541.184 1019.61 541.262C1015.93 541.505 1012.16 540.812 1010.24 538.233L1010.24 538.233C1009.77 537.599 1009.42 536.864 1009.09 536.038C1008.97 535.738 1008.85 535.399 1008.72 535.046C1008.51 534.507 1008.3 533.938 1008.09 533.434L1008.08 533.43C1006.4 529.545 1003.38 526.397 999.561 524.563L999.557 524.561C998.407 524.013 997.208 523.599 996.07 523.205C996.039 523.194 996.007 523.183 995.975 523.172C994.79 522.762 993.67 522.37 992.615 521.854C991.027 521.079 989.645 519.966 988.903 518.621C991.855 518.981 994.81 518.835 997.706 518.593C998.502 518.527 999.292 518.453 1000.08 518.38C1002.73 518.134 1005.32 517.893 1007.91 517.942C1015.24 518.1 1022.34 520.578 1028.17 525.021C1028.58 525.331 1029 525.669 1029.43 526.015C1030.27 526.685 1031.15 527.387 1032.03 527.992C1033.4 528.934 1034.93 529.752 1036.69 530.075L1036.72 530.081L1036.75 530.084C1038.74 530.326 1040.76 530.209 1042.71 529.738C1043.26 529.637 1043.98 529.445 1044.76 529.239C1045.05 529.163 1045.34 529.085 1045.64 529.009C1046.79 528.714 1048.01 528.43 1049.15 528.302C1050.31 528.171 1051.23 528.222 1051.85 528.479C1052.14 528.599 1052.34 528.755 1052.48 528.947C1052.62 529.139 1052.75 529.422 1052.79 529.862C1052.88 530.92 1052.53 531.668 1051.88 532.259C1051.19 532.888 1050.14 533.36 1048.86 533.685C1046.31 534.332 1043.27 534.293 1041.69 534.148L1040.61 534.049L1040.6 535.133C1040.56 538.986 1041.75 542.752 1044 545.881Z" stroke="#007BFF" stroke-width="2"/>
<path d="M990.365 556.435L990.406 556.438L990.446 556.436C991.534 556.406 992.609 556.242 993.612 556.088C993.711 556.073 993.808 556.058 993.905 556.044C995.017 555.875 996.048 555.736 997.07 555.76C998.052 555.783 999.07 556.027 999.894 556.476C1000.71 556.924 1001.29 557.541 1001.53 558.302C1001.9 559.432 1001.53 560.58 1000.8 562.051C1000.66 562.32 1000.5 562.626 1000.33 562.945C1000.1 563.401 999.842 563.882 999.634 564.315C999.254 565.109 998.904 565.974 998.736 566.897C997.985 571.014 1000.07 574.26 1003.01 575.594C1005.96 576.93 1009.71 576.314 1012.12 572.941L1011.3 572.36L1012.12 572.941C1012.93 571.81 1013.59 569.913 1014.21 567.863C1014.52 566.842 1014.83 565.741 1015.14 564.62L1015.17 564.527C1015.5 563.371 1015.83 562.192 1016.18 561.034C1016.88 558.708 1017.64 556.528 1018.52 554.86C1019.43 553.139 1020.34 552.227 1021.2 552L1020.95 551.035L1021.2 552C1021.65 551.882 1022.15 552.03 1022.66 552.517C1023.17 553.009 1023.56 553.752 1023.71 554.475C1023.85 555.125 1023.89 555.784 1023.93 556.522C1023.94 556.715 1023.95 556.913 1023.97 557.118C1024.03 558.06 1024.14 559.112 1024.55 560.127C1025.21 561.742 1026.44 562.875 1027.61 563.83C1027.87 564.042 1028.13 564.245 1028.37 564.442C1029.3 565.177 1030.13 565.839 1030.79 566.657C1032.38 568.623 1032.74 571.111 1032.74 574.004C1032.75 574.875 1032.72 575.728 1032.69 576.604C1032.67 577.208 1032.65 577.822 1032.64 578.46C1032.62 579.976 1032.65 581.532 1032.89 583.046C1033.53 586.994 1035.57 590.336 1037.77 593.458C1038.3 594.213 1038.84 594.953 1039.37 595.686C1041.08 598.036 1042.74 600.315 1043.96 602.816C1049.28 613.714 1044.05 628.566 1033.07 633.717C1032.74 633.869 1032.4 634.025 1032.05 634.186C1030.66 634.815 1029.11 635.521 1027.82 636.397C1026.16 637.514 1024.71 639.048 1024.5 641.309C1024.41 642.216 1024.56 643.093 1024.77 643.896C1024.92 644.468 1025.12 645.055 1025.3 645.597C1025.37 645.798 1025.43 645.994 1025.49 646.179C1025.97 647.666 1026.16 648.72 1025.69 649.643C1025.16 650.666 1024.12 651.07 1022.43 651.264C1021.9 651.324 1021.37 651.359 1020.82 651.395C1020.48 651.417 1020.13 651.44 1019.76 651.47C1018.84 651.545 1017.86 651.662 1016.94 651.944C1015.31 652.446 1014.03 653.438 1012.94 654.588C1011.93 655.656 1011.04 656.91 1010.21 658.09C1010.16 658.167 1010.1 658.244 1010.05 658.321C1008.22 660.92 1006.63 663 1004.19 663.498C1001.92 663.963 999.759 662.867 997.202 661.427C997.077 661.357 996.951 661.285 996.824 661.214C994.5 659.899 991.83 658.389 988.88 658.625C988.422 658.661 987.97 658.739 987.557 658.815C987.469 658.831 987.384 658.847 987.301 658.862C986.975 658.923 986.675 658.979 986.375 659.021C985.625 659.125 985.061 659.108 984.582 658.891C984.007 658.631 983.598 658.112 983.28 657.305C982.979 656.542 982.809 655.659 982.631 654.728C982.618 654.659 982.605 654.59 982.591 654.521C982.071 651.168 980.513 648.062 978.136 645.64L978.131 645.635L978.125 645.629C976.866 644.386 975.292 643.509 973.573 643.091C972.231 642.764 970.84 642.727 969.49 642.976C968.702 639.268 965.622 636.328 962.219 634.98C958.47 633.495 954.344 633.617 950.553 634.137L950.552 634.137C943.003 635.18 935.757 637.795 929.282 641.815L929.256 641.832L929.23 641.85C927.654 642.97 925.941 643.884 924.133 644.569C921.767 645.288 919.183 644.992 916.444 644.643L903.423 642.98C907.729 631.28 910.976 619.216 913.125 606.934L913.125 606.934C913.528 604.631 913.937 602.31 914.676 600.203C915.412 598.105 916.449 596.296 918.055 594.984C919.271 593.99 920.729 593.357 922.349 592.874C923.488 592.533 924.648 592.283 925.841 592.024C926.372 591.909 926.909 591.793 927.455 591.667L927.457 591.666C937.405 589.339 946.425 584.079 953.349 576.567L953.35 576.565C954.196 575.643 954.997 574.713 955.789 573.793C957.046 572.332 958.283 570.896 959.643 569.559C961.812 567.426 964.117 565.745 966.881 565.018C967.932 564.742 969.015 564.616 970.179 564.48C970.387 564.456 970.598 564.431 970.812 564.406C972.182 564.24 973.645 564.026 975.048 563.471C977.054 562.677 978.751 561.252 980.287 559.96C980.496 559.785 980.703 559.611 980.906 559.443C982.662 557.987 984.261 556.818 986.171 556.492C987.566 556.38 988.967 556.361 990.365 556.435Z" stroke="#007BFF" stroke-width="2"/>
<path d="M943.961 540.253L943.97 540.255L943.98 540.257C948.934 541.103 953.85 542.15 958.717 543.396C954.942 543.241 951.161 542.706 947.352 542.021C945.162 541.628 942.947 541.182 940.719 540.733C936.848 539.953 932.937 539.165 929.052 538.633C918.521 537.19 907.852 537.574 897.341 537.983C897.209 537.712 897.189 537.344 897.339 536.895C897.551 536.261 898.043 535.703 898.592 535.473C899.924 534.916 901.519 535.275 903.355 535.79C906.876 536.777 909.982 536.792 913.015 536.644C913.665 536.612 914.309 536.574 914.951 536.535C917.324 536.392 919.678 536.251 922.302 536.467C925.538 536.792 928.754 537.29 931.937 537.956L931.946 537.958L931.955 537.96L943.961 540.253Z" stroke="#007BFF" stroke-width="2"/>
<path d="M906.991 507.846L906.957 507.802L906.918 507.763C906.141 506.98 905.547 506.036 905.179 504.996C905.055 504.609 905.059 504.192 905.19 503.807C905.316 503.435 905.555 503.111 905.873 502.881C906.138 502.751 906.474 502.705 906.943 502.738C907.278 502.761 907.57 502.809 907.902 502.864C908.123 502.901 908.361 502.94 908.64 502.977C909.332 503.068 910.149 503.036 910.88 502.781C911.619 502.523 912.388 501.986 912.669 501.013L911.708 500.736L912.669 501.013C912.832 500.449 912.767 499.847 912.727 499.484C912.722 499.436 912.717 499.392 912.714 499.353C912.671 498.906 912.706 498.795 912.737 498.742C912.754 498.715 912.807 498.634 913.099 498.588C913.406 498.539 913.787 498.56 914.243 498.598C918.582 498.96 921.399 497.67 923.678 495.596C924.787 494.587 925.757 493.403 926.702 492.197C926.906 491.936 927.108 491.676 927.311 491.414C928.061 490.446 928.817 489.473 929.664 488.509L928.914 487.849L929.664 488.509C930.675 487.361 931.766 486.413 932.865 485.976C933.889 485.569 934.943 485.588 936.1 486.442C937.42 487.418 937.721 488.734 937.603 490.408C937.542 491.26 937.376 492.15 937.199 493.09L937.192 493.127C937.022 494.03 936.841 494.991 936.786 495.9C936.738 496.687 936.77 497.478 936.816 498.23C936.828 498.444 936.842 498.653 936.855 498.858C936.89 499.393 936.924 499.905 936.936 500.417C936.971 501.827 936.832 502.997 936.225 503.979C935.922 504.469 935.492 504.921 934.964 505.383C934.621 505.682 934.281 505.95 933.923 506.233C933.705 506.405 933.479 506.583 933.241 506.778C932.091 507.717 930.783 508.933 930.582 510.802C930.469 511.854 930.756 512.806 931.13 513.628C931.402 514.225 931.758 514.825 932.074 515.358C932.178 515.534 932.278 515.702 932.369 515.861C932.736 516.5 933.025 517.194 933.127 517.832C933.225 518.444 933.141 518.921 932.889 519.284C932.475 519.743 931.954 520.092 931.372 520.302L931.333 520.316L931.295 520.333L927.104 522.249C926.518 522.516 925.954 522.74 925.437 522.831C924.96 522.915 924.615 522.87 924.35 522.722C923.861 522.298 923.474 521.768 923.219 521.172L923.194 521.114L923.162 521.059C921.87 518.861 919.86 517.444 917.83 516.264C917.14 515.863 916.46 515.495 915.795 515.135C914.436 514.399 913.139 513.697 911.944 512.817C910.112 511.352 908.45 509.684 906.991 507.846Z" stroke="#007BFF" stroke-width="2"/>
<path d="M941.818 439.019C941.818 439.148 941.816 439.28 941.814 439.415C941.811 439.644 941.806 439.883 941.802 440.127C941.789 440.755 941.776 441.423 941.784 442.079C941.806 443.858 941.973 445.889 942.94 447.357C943.143 447.665 943.472 447.941 943.769 448.16C944.093 448.4 944.491 448.654 944.927 448.904C945.799 449.405 946.878 449.927 947.944 450.34C948.993 450.747 950.107 451.079 951.025 451.15C951.11 451.156 951.197 451.161 951.286 451.163C951.19 452.332 951.191 453.562 951.394 454.711C951.707 456.488 952.536 458.229 954.388 459.134C954.776 459.323 955.187 459.464 955.548 459.583C955.618 459.606 955.687 459.628 955.753 459.65C956.047 459.745 956.303 459.829 956.547 459.927C957.108 460.152 957.336 460.353 957.433 460.579C957.519 461.06 957.464 461.557 957.275 462.009L957.252 462.065L957.236 462.123C956.46 464.875 956.363 467.773 956.953 470.57C957.131 471.628 957.546 472.632 958.165 473.508L958.18 473.528L958.195 473.547C958.837 474.367 959.688 474.898 960.418 475.327C960.527 475.391 960.634 475.453 960.738 475.513C961.367 475.879 961.891 476.184 962.335 476.586C963.075 477.307 963.506 478.288 963.537 479.321C963.567 480.344 963.202 481.339 962.519 482.1C962.154 482.423 961.728 482.669 961.265 482.823C960.788 482.982 960.283 483.041 959.782 482.995C959.281 482.949 958.796 482.799 958.355 482.556C957.924 482.317 957.547 481.994 957.245 481.605C956.453 480.396 956.511 478.902 956.762 476.967C956.787 476.769 956.815 476.566 956.844 476.358C957.077 474.665 957.35 472.673 956.76 470.845C956.14 468.924 954.732 467.568 953.413 466.413C953.192 466.22 952.974 466.032 952.76 465.848C951.635 464.88 950.627 464.013 949.917 462.929L949.081 463.476L949.917 462.929C949.109 461.694 948.73 460.227 948.333 458.561C948.314 458.484 948.296 458.407 948.278 458.33C947.91 456.781 947.501 455.061 946.61 453.538C945.789 452.134 944.62 451.003 943.567 449.985C943.513 449.933 943.46 449.881 943.406 449.829C942.273 448.732 941.288 447.742 940.658 446.536C939.919 445.121 939.809 443.338 940.283 441.707C940.586 440.666 941.113 439.733 941.818 439.019Z" stroke="#007BFF" stroke-width="2"/>
<path d="M858.397 487.791L858.397 487.791C858.943 487.516 859.582 487.57 860.358 487.974C861.143 488.382 861.926 489.085 862.589 489.827C863.469 490.812 864.382 491.98 865.357 493.239C865.447 493.355 865.536 493.471 865.627 493.588C866.514 494.736 867.448 495.944 868.423 497.105C870.555 499.642 872.993 502.093 875.814 503.302C876.573 503.628 877.223 503.791 877.818 503.84C878.414 503.89 878.909 503.821 879.335 503.739C879.466 503.714 879.587 503.688 879.703 503.664C880.333 503.534 880.792 503.438 881.55 503.6C882.603 503.825 883.448 504.544 884.369 505.453C884.459 505.542 884.551 505.634 884.645 505.728C884.872 505.955 885.109 506.192 885.348 506.416C885.209 506.524 885.079 506.64 884.959 506.763C884.242 507.495 883.765 508.551 883.773 509.63L883.774 509.68L883.779 509.73C883.974 511.523 884.77 513.198 886.037 514.481C887.274 515.968 888.603 517.36 889.93 518.716C890.233 519.026 890.536 519.334 890.837 519.641C891.873 520.694 892.895 521.733 893.883 522.808C894.413 523.384 894.895 523.964 895.225 524.559C895.552 525.147 895.695 525.689 895.635 526.21C895.566 526.812 895.187 527.365 894.56 527.773C893.94 528.176 893.153 528.38 892.428 528.322C890.728 528.019 889.172 527.172 887.995 525.908L887.971 525.882L887.945 525.858C884.732 522.868 882.324 519.164 879.919 515.284C879.701 514.932 879.482 514.578 879.263 514.223C877.092 510.704 874.859 507.087 872.016 503.963L871.276 504.636L872.016 503.963C869.474 501.169 866.469 498.807 863.543 496.506C862.467 495.66 861.402 494.822 860.374 493.974L860.344 493.95L860.313 493.928C859.149 493.109 858.216 492.003 857.606 490.718C857.41 490.169 857.383 489.527 857.533 488.967C857.685 488.399 857.993 487.995 858.397 487.791Z" stroke="#007BFF" stroke-width="2"/>
<path d="M984.782 337.472L984.833 337.487L984.885 337.497C985.703 337.648 986.455 337.566 987.093 337.44C987.404 337.379 987.702 337.304 987.963 337.239L987.976 337.235C988.25 337.166 988.477 337.11 988.688 337.071C989.123 336.989 989.314 337.019 989.422 337.069C989.504 337.107 989.71 337.237 989.943 337.815C990.142 338.308 990.041 339.083 989.562 339.981C989.097 340.855 988.405 341.588 987.857 341.919C985.585 343.291 982.646 343.036 979.551 342.641L977.589 342.39L978.55 344.119C982.488 351.2 985.034 358.969 986.051 367.008C986.26 368.666 986.265 370.065 985.552 370.985C984.912 371.654 984.091 372.125 983.19 372.339L983.154 372.348L983.119 372.359C980.412 373.216 977.576 373.593 974.739 373.475C973.872 373.438 972.758 373.43 971.767 373.682C970.765 373.937 969.683 374.52 969.27 375.802C969.054 376.473 969.111 377.214 969.15 377.704C969.155 377.779 969.161 377.848 969.165 377.91C969.202 378.506 969.151 378.718 969.051 378.849L969.051 378.849C968.99 378.929 968.875 379.02 968.598 379.138C968.477 379.189 968.351 379.235 968.199 379.291C968.176 379.3 968.153 379.308 968.129 379.317C967.955 379.381 967.749 379.458 967.545 379.553C965.306 380.596 964.736 382.849 964.421 384.801C964.346 385.269 964.288 385.699 964.231 386.118C964.156 386.673 964.083 387.208 963.977 387.785C963.802 388.74 963.568 389.577 963.184 390.272L964.06 390.755L963.184 390.272C962.986 390.631 962.67 390.959 962.35 391.139C962.081 391.291 961.899 391.296 961.777 391.255C961.6 391.114 961.456 390.934 961.358 390.729C961.247 390.498 961.197 390.243 961.212 389.987L961.216 389.929L961.213 389.871C961.175 389.19 961.215 388.473 961.279 387.707C961.297 387.493 961.317 387.273 961.337 387.048C961.388 386.493 961.441 385.913 961.468 385.353C961.544 383.77 961.44 382.032 960.402 380.509C960.177 380.178 959.916 379.869 959.686 379.599C959.66 379.569 959.635 379.54 959.61 379.511C959.4 379.266 959.218 379.053 959.057 378.836C958.712 378.371 958.606 378.067 958.63 377.799C958.724 377.415 958.916 377.062 959.187 376.774L959.214 376.745L959.239 376.713C962.865 372.169 967.335 368.368 972.403 365.52C973.802 364.87 975.065 363.959 976.123 362.835L976.17 362.785L976.21 362.729C976.982 361.642 977.53 360.411 977.82 359.11C978.887 355.266 979.528 350.598 977.291 346.823C976.773 345.95 976.079 345.108 975.452 344.347C975.204 344.047 974.967 343.759 974.755 343.487C973.952 342.456 973.393 341.525 973.258 340.479C973.067 338.994 973.9 337.625 975.375 336.699C976.84 335.779 978.754 335.432 980.354 335.894C981.801 336.499 983.279 337.026 984.782 337.472Z" stroke="#007BFF" stroke-width="2"/>
<path d="M597.444 382.621C606.585 384.017 616.472 385.327 625.749 384.82C626.169 384.797 626.586 384.771 626.999 384.746C629.997 384.561 632.791 384.389 635.342 385.349C637.864 386.299 639.769 388.209 641.256 390.644C642.517 392.71 643.451 395.112 644.188 397.525L640.818 397.412L639.666 397.374L639.79 398.52C639.908 399.604 640.37 400.622 641.108 401.424C650.612 413.995 658.901 427.44 665.863 441.579C666.51 442.893 667.347 444.273 668.177 445.64L668.276 445.804C669.149 447.242 670.011 448.674 670.703 450.091C672.111 452.973 672.655 455.474 671.488 457.589C670.784 458.863 670.945 460.279 671.499 461.427C672.051 462.571 673.039 463.564 674.216 464.097C676.424 465.095 678.915 464.79 680.945 464.534L697.684 462.424L697.739 462.417L697.794 462.404C698.782 462.165 699.822 462.267 700.745 462.691C701.309 463.075 701.609 463.726 701.662 464.662C701.718 465.634 701.49 466.763 701.149 467.784C697.777 477.877 691.231 486.598 684.606 495.425C683.903 496.362 683.199 497.3 682.497 498.241C675.238 507.983 668.296 518.027 666.35 530.116L666.347 530.133L666.345 530.15C665.82 534.33 665.509 538.534 665.414 542.746C665.033 549.566 664.036 556.338 662.435 562.978L662.43 562.995L662.427 563.013C661.879 565.712 660.921 568.31 659.587 570.719C658.164 573.059 656.134 574.993 654.005 577.022C653.622 577.386 653.236 577.754 652.85 578.127C650.367 580.531 647.9 583.163 646.783 586.666C646.162 588.612 646.006 590.68 646.009 592.712C646.01 593.924 646.072 595.194 646.131 596.425C646.169 597.211 646.207 597.982 646.227 598.711C646.336 602.624 645.987 605.82 643.523 607.993C642.164 609.191 640.366 609.82 638.371 610.517C638.065 610.624 637.754 610.733 637.44 610.845C635.192 611.65 632.741 612.669 631.35 615.017C630.169 617.011 630.194 619.237 630.362 621.267C630.4 621.729 630.445 622.18 630.489 622.62C630.646 624.204 630.791 625.656 630.568 627.063C629.885 631.376 625.774 634.438 621.386 636.615C612.156 641.183 601.975 643.5 591.677 643.378L591.642 643.378L591.607 643.38C590.058 643.471 588.511 643.164 587.113 642.49C585.682 641.64 584.891 640.186 584.362 638.298C584.097 637.351 583.909 636.332 583.732 635.272C583.692 635.029 583.652 634.783 583.611 634.535C583.479 633.719 583.343 632.886 583.179 632.094C582.228 627.499 579.85 623.439 577.559 619.545L577.509 619.46C575.205 615.544 572.997 611.792 572.057 607.612C571.254 604.04 571.435 600.287 571.622 596.421C571.668 595.456 571.715 594.485 571.747 593.507C571.898 588.894 571.705 584.194 569.208 580.073C572.347 574.047 575.615 567.46 575.498 560.371C575.402 554.478 572.978 548.984 570.661 543.731C570.544 543.467 570.428 543.203 570.312 542.94C567.859 537.363 565.655 532.036 566.032 526.383C566.131 524.896 566.412 523.419 566.717 521.88C566.736 521.782 566.756 521.684 566.775 521.585C567.06 520.155 567.355 518.667 567.499 517.155L567.5 517.152C567.977 511.968 566.677 506.777 563.815 502.43L563.813 502.427C561.946 499.612 558.787 496.734 554.962 497.037C554.366 497.084 553.768 497.213 553.249 497.325C553.134 497.35 553.022 497.374 552.915 497.396C552.29 497.526 551.772 497.605 551.277 497.564C550.152 497.472 549.223 496.814 548.269 495.742C547.793 495.208 547.342 494.607 546.867 493.967C546.836 493.925 546.805 493.884 546.774 493.842C546.337 493.252 545.877 492.631 545.392 492.064C543.137 489.433 540.125 487.922 536.922 487.001C533.727 486.082 530.272 485.731 527.077 485.47L490.766 482.498L490.717 482.494L490.669 482.494C489.882 482.506 489.109 482.29 488.444 481.871C488.054 481.537 487.83 481.031 487.729 480.295C487.636 479.618 487.662 478.883 487.689 478.088C487.694 477.966 487.698 477.842 487.702 477.717L487.702 477.714C487.834 473.063 486.354 468.51 483.515 464.824L483.513 464.822C482.439 463.437 481.169 462.182 479.958 460.985C479.623 460.654 479.293 460.327 478.972 460.003C477.46 458.475 476.121 456.973 475.231 455.193C473.799 452.33 473.644 448.978 473.526 445.488L472.613 418.644C472.536 416.405 472.509 414.359 473.335 412.637C474.282 411.017 475.597 409.643 477.174 408.626L477.203 408.608L477.231 408.587C477.983 408.025 478.752 407.465 479.527 406.901C483.274 404.175 487.175 401.336 490.096 397.57C491.785 395.392 493.081 392.994 494.249 390.581C494.726 389.596 495.174 388.626 495.617 387.666C496.281 386.227 496.935 384.81 497.662 383.395C500.055 378.741 503.306 374.416 507.912 372.735C510.039 372.082 512.236 371.683 514.457 371.548L514.481 371.546L514.505 371.543C526.743 370.201 538.741 367.2 550.169 362.623L550.195 362.613L550.221 362.601C551.813 361.858 553.505 361.351 555.243 361.096C557.036 360.993 558.813 361.484 560.3 362.494C561.793 363.509 562.909 364.99 563.471 366.706C563.875 368.065 563.92 369.511 563.969 371.107C563.974 371.289 563.98 371.472 563.986 371.658C564.045 373.415 564.16 375.342 564.986 377.129C567.026 381.539 571.763 382.619 576.125 383.448C576.48 383.515 576.834 383.581 577.186 383.647C579.079 383.999 580.921 384.342 582.632 384.881C584.646 385.516 586.372 386.395 587.661 387.786C587.898 388.042 588.127 388.322 588.381 388.63L588.383 388.633C588.629 388.933 588.897 389.26 589.185 389.569C589.76 390.188 590.486 390.818 591.469 391.116C592.775 391.511 594.06 391.15 595.061 390.472C596.058 389.797 596.856 388.76 597.246 387.614C597.811 385.953 597.691 384.204 597.444 382.621Z" stroke="#007BFF" stroke-width="2"/>
<mask id="path-26-inside-6" fill="white">
<path d="M625.702 251.745C628.221 254.42 631.044 257.256 634.689 257.723C641.127 258.546 645.756 251.889 648.703 246.106C648.812 247.58 649.492 248.954 650.598 249.934C651.705 250.915 653.15 251.426 654.626 251.357C656.215 251.09 657.732 250.497 659.081 249.615C671.837 242.645 686.124 238.951 700.66 238.867C700.521 237.766 700.794 236.652 701.427 235.74C702.06 234.829 703.009 234.184 704.089 233.931C707.045 233.345 709.707 235.9 711.133 238.554C712.558 241.208 713.447 244.285 715.712 246.272C717.977 248.258 722.363 248.172 723.257 245.295C724.116 242.533 721.239 240.177 718.848 238.549C716.458 236.92 713.938 233.906 715.548 231.503C727.761 228.8 740.05 226.086 752.548 225.549C754.675 225.623 756.795 225.258 758.776 224.476C760.682 223.541 762.196 221.418 761.684 219.357C758.957 219.998 756.1 219.813 753.479 218.824C750.858 217.835 748.59 216.088 746.966 213.806C764.307 212.375 782.751 211.155 798.119 219.315C799.963 223.274 790.564 226.568 793.079 230.138C793.881 231.277 795.488 231.411 796.881 231.437C807.56 231.635 818.301 231.829 828.86 230.217C832.719 229.628 836.616 228.796 840.49 229.274C846.943 230.07 852.462 234.375 858.81 235.779C861.394 236.35 864.291 236.369 866.469 234.867C868.647 233.364 869.584 229.942 867.799 227.988C873.776 222.13 883.696 223.582 891.581 226.387C899.467 229.191 906.937 233.714 915.283 234.339C921.267 234.787 927.335 233.178 933.249 234.201C936.965 234.844 940.424 236.497 944.056 237.513C950.925 239.434 958.192 239.028 965.324 239.121C983.522 239.366 1001.52 242.942 1018.43 249.673C1020.63 250.389 1022.64 251.58 1024.33 253.161C1025.91 254.846 1026.71 257.464 1025.65 259.513L1008.18 256.96C1009.83 260.2 1014.08 260.753 1017.54 261.871C1021 262.989 1024.59 266.808 1022.51 269.79C1018.76 268.597 1015.37 272.344 1013.47 275.791C1011.58 279.239 1009.27 283.367 1005.35 283.577C1001.83 283.765 997.575 280.771 995.283 283.444C998.45 287.44 1001.16 291.775 1003.37 296.371C1005.63 301.089 1007.25 307.034 1004.19 311.279C1003.7 312.037 1002.97 312.603 1002.12 312.881C999.62 313.514 997.995 310.456 996.202 308.602C993.943 306.266 990.527 305.605 987.467 304.509C984.408 303.414 981.185 301.259 980.946 298.018C980.797 296.002 981.862 294.127 982.646 292.264C983.964 289.123 984.54 285.72 984.33 282.32C984.159 279.585 983.392 276.74 981.427 274.829C979.463 272.918 976.071 272.311 973.962 274.062C972.978 274.878 972.19 276.185 970.912 276.234C968.654 276.32 966.921 272.384 965.104 273.727C965.317 275.159 965.02 276.62 964.265 277.855C958.845 282.57 950.517 280.575 943.529 282.241C940.206 283.192 937.025 284.581 934.069 286.372C932.963 286.845 932.022 287.635 931.364 288.642C930.492 290.337 931.454 292.508 932.991 293.635C934.622 294.635 936.454 295.261 938.356 295.466C946.875 297.08 955.519 299.578 962.245 305.05C968.972 310.522 973.382 319.568 971.254 327.973L954.453 311.92C955.091 318.66 955.453 325.42 955.54 332.197C955.648 333.521 955.466 334.852 955.007 336.098C953.809 338.743 950.563 339.633 947.718 340.217C946.927 340.367 946.177 340.683 945.516 341.144C944.856 341.605 944.3 342.201 943.887 342.892C943.473 343.583 943.21 344.353 943.115 345.153C943.02 345.953 943.095 346.763 943.336 347.532C944.346 350.826 946.866 353.395 949.174 355.954C951.481 358.513 953.752 361.422 954.054 364.854C954.356 368.287 951.766 372.156 948.329 371.917C945.723 371.736 943.789 369.404 942.678 367.04C941.566 364.676 940.905 362.042 939.235 360.034C934.18 353.954 922.826 356.559 918.297 350.078C917.143 351.387 916.343 352.97 915.972 354.675C915.601 356.381 915.673 358.153 916.18 359.824C918.286 358.505 921.17 359.73 922.753 361.646C924.336 363.563 925.083 366.02 926.326 368.172C928.003 371.076 930.673 373.651 930.907 376.997C930.845 378.262 930.866 379.53 930.971 380.792C931.386 382.819 933.1 384.275 934.288 385.969C937.052 389.912 936.916 395.328 935.134 399.802C933.352 404.275 930.151 408.013 926.981 411.637C921.443 417.967 915.792 424.26 909.227 429.517C907.354 431.017 905.354 432.492 904.188 434.589C903.021 436.686 902.961 439.63 904.754 441.225C903.471 441.289 901.17 441.92 899.888 441.984C899.437 436.838 899.338 431.667 899.594 426.507C894.532 424.076 889.081 430.586 889.734 436.164C890.387 441.742 894.422 446.218 897.294 451.044C899.394 454.573 900.955 458.688 900.254 462.734C899.553 466.781 895.941 470.514 891.849 470.157C885.342 469.589 882.62 460.247 876.175 459.178C875.607 459.044 875.01 459.103 874.479 459.346C873.523 459.871 873.357 461.151 873.303 462.241C873.039 467.59 872.811 473.152 874.899 478.084C877.954 485.299 885.846 491.358 884.19 499.016C875.272 494.871 870.636 484.87 868.53 475.264C866.425 465.658 866.074 455.573 862.301 446.492C859.435 450.164 853.412 447.128 850.794 443.275C848.312 439.622 846.784 435.397 844.376 431.695C841.967 427.993 838.278 424.678 833.867 424.474C829.241 424.261 825.23 427.435 821.702 430.434C818.801 432.9 815.822 435.463 814.127 438.873C811.659 443.833 812.305 449.682 812.186 455.221C812.057 461.21 810.788 467.528 806.706 471.912C802.625 476.297 795.091 477.824 790.589 473.872C788.239 471.81 787.101 468.728 786.087 465.769C781.201 451.509 777.132 436.982 773.899 422.258C773.143 425.619 770.192 429.95 767.373 427.971C766.74 427.438 766.228 426.778 765.869 426.033C760.611 417.121 750.873 411.776 741.034 408.57C731.195 405.365 720.844 403.87 711.114 400.347C705.661 398.373 700.454 395.779 695.593 392.616C694.354 394.437 693.63 396.558 693.499 398.757C693.367 400.955 693.833 403.148 694.847 405.103C697.005 408.924 701.889 411.135 706.07 409.8C708.23 409.109 710.055 407.61 712.198 406.869C714.342 406.128 717.219 406.492 718.157 408.557C719.054 410.534 717.698 412.925 718.37 414.99C719.395 418.133 724.136 418.375 725.794 421.236C727.028 423.365 726.013 426.191 724.252 427.909C722.49 429.626 720.14 430.568 717.99 431.764C711.014 435.643 706.053 442.265 699.956 447.417C693.86 452.57 685.258 456.331 677.992 453.026C679.724 444.256 669.277 437.818 667.355 429.087C666.722 426.213 667.05 423.161 666.147 420.361C664.84 416.306 661.242 413.518 658.291 410.446C654.712 406.679 651.924 402.233 650.091 397.371C648.258 392.508 647.417 387.328 647.619 382.136C647.778 378.528 648.441 374.861 647.619 371.344C646.797 367.827 643.885 364.423 640.277 364.582C632.036 364.946 621.654 365.559 617.33 358.534C615.787 356.027 615.115 352.354 617.347 350.433C618.92 349.078 621.244 349.206 623.311 349.409L641.879 351.236C646.222 351.663 650.916 352.016 654.643 349.745C658.37 347.475 659.985 341.448 656.534 338.777C654.012 336.825 649.495 336.931 648.762 333.828C648.152 331.244 651.012 328.311 649.467 326.152C648.36 324.603 645.869 325.033 644.36 326.194C642.851 327.355 641.756 329.052 640.067 329.931C637.104 331.473 633.563 330.006 630.376 329.008C627.188 328.011 622.914 327.926 621.368 330.887C619.639 334.198 622.902 338.537 621.186 341.855C618.917 346.242 611.233 343.744 608.047 347.518C604.39 351.848 610.535 358.304 609.302 363.835C607.728 364.615 605.978 364.973 604.224 364.875C602.47 364.776 600.772 364.224 599.295 363.273C597.842 362.285 596.684 360.922 595.944 359.328C595.205 357.734 594.911 355.97 595.094 354.223C595.399 351.734 596.696 349.194 595.827 346.843C595.124 344.942 593.215 343.81 591.441 342.829L573.397 332.858C571.722 335.966 573.84 339.819 576.489 342.153C579.137 344.487 582.455 346.245 584.195 349.317C585.296 351.446 585.543 353.914 584.885 356.218C584.227 358.522 582.715 360.488 580.657 361.715C580.399 361.893 580.105 362.013 579.797 362.067C579.488 362.121 579.171 362.107 578.868 362.027C578.58 361.858 578.329 361.633 578.13 361.365C577.931 361.097 577.787 360.792 577.708 360.467C574.524 352.32 569.744 344.287 562.102 340.031C554.46 335.775 543.479 336.65 538.468 343.819C537.277 345.522 536.479 347.463 535.442 349.264C529.933 358.829 518.122 363.359 507.088 363.063C506.008 363.122 504.935 362.87 503.995 362.336C502.211 361.104 502.292 358.491 502.565 356.341L503.723 347.216C503.956 345.384 504.293 343.359 505.743 342.215C507.787 340.603 510.736 341.62 513.339 341.583C515.311 341.491 517.207 340.794 518.771 339.588C520.334 338.381 521.488 336.724 522.077 334.839C522.603 332.936 522.6 330.926 522.067 329.025C521.535 327.123 520.494 325.403 519.057 324.05C517.863 322.929 516.262 321.522 516.892 320.011C517.144 319.593 517.484 319.235 517.888 318.963C518.293 318.69 518.752 318.51 519.234 318.434C523.91 317.076 528.851 316.72 533.449 315.118C538.047 313.516 542.506 310.238 543.595 305.492C543.929 304.037 544.081 302.276 545.387 301.554C546.043 301.278 546.747 301.134 547.458 301.131C549.951 300.777 552.221 299.502 553.821 297.557C555.421 295.613 556.235 293.14 556.102 290.626C558.306 289.086 561.393 290.218 563.525 291.856C565.657 293.494 567.539 295.658 570.133 296.364C574.967 297.679 579.639 293.399 584.649 293.379C586.756 293.371 588.937 294.116 590.919 293.402C592.928 292.678 594.128 290.677 595.67 289.2C597.212 287.722 599.918 286.821 601.342 288.413L600.13 279.431C602.572 280.047 605.118 280.135 607.596 279.687C610.075 279.239 612.429 278.265 614.5 276.832L598.828 271.537C598.283 271.401 597.779 271.132 597.363 270.754C596.223 269.527 597.355 267.615 598.282 266.22C600.498 262.884 600.87 257.388 597.225 255.727C594.737 254.593 591.882 255.954 589.494 257.285L578.055 263.663C577.692 265.838 580.351 267.07 581.998 268.534C582.995 269.42 583.701 270.587 584.022 271.882C584.344 273.176 584.266 274.538 583.8 275.787C583.333 277.037 582.5 278.116 581.409 278.883C580.318 279.65 579.021 280.07 577.687 280.086C578.44 281.065 578.964 282.202 579.218 283.41C579.473 284.619 579.452 285.87 579.158 287.07L571.462 287.624C570.598 287.797 569.701 287.622 568.966 287.136C568.143 286.405 568.254 285.124 568.063 284.04C567.603 281.423 565.041 279.589 562.425 279.119C559.81 278.648 557.135 279.251 554.545 279.846C553.446 280.242 552.238 280.214 551.158 279.768C550.539 279.366 550.068 278.772 549.818 278.077C548.683 275.324 549.744 272.088 551.567 269.734C553.391 267.38 555.887 265.659 558.129 263.7C563.49 258.996 567.428 252.887 569.5 246.062C573.737 244.287 578.123 241.875 582.36 240.1C588.892 236.793 596.217 235.373 603.511 236.002L617.859 236.276C622.107 236.357 626.47 236.461 630.398 238.08C634.326 239.7 637.777 243.203 638.049 247.443C638.13 247.923 638.089 248.416 637.928 248.875C637.767 249.335 637.492 249.746 637.129 250.07C636.574 250.373 635.946 250.515 635.315 250.479C631.353 250.618 629.664 251.605 625.702 251.745Z"/>
</mask>
<path d="M625.702 251.745C628.221 254.42 631.044 257.256 634.689 257.723C641.127 258.546 645.756 251.889 648.703 246.106C648.812 247.58 649.492 248.954 650.598 249.934C651.705 250.915 653.15 251.426 654.626 251.357C656.215 251.09 657.732 250.497 659.081 249.615C671.837 242.645 686.124 238.951 700.66 238.867C700.521 237.766 700.794 236.652 701.427 235.74C702.06 234.829 703.009 234.184 704.089 233.931C707.045 233.345 709.707 235.9 711.133 238.554C712.558 241.208 713.447 244.285 715.712 246.272C717.977 248.258 722.363 248.172 723.257 245.295C724.116 242.533 721.239 240.177 718.848 238.549C716.458 236.92 713.938 233.906 715.548 231.503C727.761 228.8 740.05 226.086 752.548 225.549C754.675 225.623 756.795 225.258 758.776 224.476C760.682 223.541 762.196 221.418 761.684 219.357C758.957 219.998 756.1 219.813 753.479 218.824C750.858 217.835 748.59 216.088 746.966 213.806C764.307 212.375 782.751 211.155 798.119 219.315C799.963 223.274 790.564 226.568 793.079 230.138C793.881 231.277 795.488 231.411 796.881 231.437C807.56 231.635 818.301 231.829 828.86 230.217C832.719 229.628 836.616 228.796 840.49 229.274C846.943 230.07 852.462 234.375 858.81 235.779C861.394 236.35 864.291 236.369 866.469 234.867C868.647 233.364 869.584 229.942 867.799 227.988C873.776 222.13 883.696 223.582 891.581 226.387C899.467 229.191 906.937 233.714 915.283 234.339C921.267 234.787 927.335 233.178 933.249 234.201C936.965 234.844 940.424 236.497 944.056 237.513C950.925 239.434 958.192 239.028 965.324 239.121C983.522 239.366 1001.52 242.942 1018.43 249.673C1020.63 250.389 1022.64 251.58 1024.33 253.161C1025.91 254.846 1026.71 257.464 1025.65 259.513L1008.18 256.96C1009.83 260.2 1014.08 260.753 1017.54 261.871C1021 262.989 1024.59 266.808 1022.51 269.79C1018.76 268.597 1015.37 272.344 1013.47 275.791C1011.58 279.239 1009.27 283.367 1005.35 283.577C1001.83 283.765 997.575 280.771 995.283 283.444C998.45 287.44 1001.16 291.775 1003.37 296.371C1005.63 301.089 1007.25 307.034 1004.19 311.279C1003.7 312.037 1002.97 312.603 1002.12 312.881C999.62 313.514 997.995 310.456 996.202 308.602C993.943 306.266 990.527 305.605 987.467 304.509C984.408 303.414 981.185 301.259 980.946 298.018C980.797 296.002 981.862 294.127 982.646 292.264C983.964 289.123 984.54 285.72 984.33 282.32C984.159 279.585 983.392 276.74 981.427 274.829C979.463 272.918 976.071 272.311 973.962 274.062C972.978 274.878 972.19 276.185 970.912 276.234C968.654 276.32 966.921 272.384 965.104 273.727C965.317 275.159 965.02 276.62 964.265 277.855C958.845 282.57 950.517 280.575 943.529 282.241C940.206 283.192 937.025 284.581 934.069 286.372C932.963 286.845 932.022 287.635 931.364 288.642C930.492 290.337 931.454 292.508 932.991 293.635C934.622 294.635 936.454 295.261 938.356 295.466C946.875 297.08 955.519 299.578 962.245 305.05C968.972 310.522 973.382 319.568 971.254 327.973L954.453 311.92C955.091 318.66 955.453 325.42 955.54 332.197C955.648 333.521 955.466 334.852 955.007 336.098C953.809 338.743 950.563 339.633 947.718 340.217C946.927 340.367 946.177 340.683 945.516 341.144C944.856 341.605 944.3 342.201 943.887 342.892C943.473 343.583 943.21 344.353 943.115 345.153C943.02 345.953 943.095 346.763 943.336 347.532C944.346 350.826 946.866 353.395 949.174 355.954C951.481 358.513 953.752 361.422 954.054 364.854C954.356 368.287 951.766 372.156 948.329 371.917C945.723 371.736 943.789 369.404 942.678 367.04C941.566 364.676 940.905 362.042 939.235 360.034C934.18 353.954 922.826 356.559 918.297 350.078C917.143 351.387 916.343 352.97 915.972 354.675C915.601 356.381 915.673 358.153 916.18 359.824C918.286 358.505 921.17 359.73 922.753 361.646C924.336 363.563 925.083 366.02 926.326 368.172C928.003 371.076 930.673 373.651 930.907 376.997C930.845 378.262 930.866 379.53 930.971 380.792C931.386 382.819 933.1 384.275 934.288 385.969C937.052 389.912 936.916 395.328 935.134 399.802C933.352 404.275 930.151 408.013 926.981 411.637C921.443 417.967 915.792 424.26 909.227 429.517C907.354 431.017 905.354 432.492 904.188 434.589C903.021 436.686 902.961 439.63 904.754 441.225C903.471 441.289 901.17 441.92 899.888 441.984C899.437 436.838 899.338 431.667 899.594 426.507C894.532 424.076 889.081 430.586 889.734 436.164C890.387 441.742 894.422 446.218 897.294 451.044C899.394 454.573 900.955 458.688 900.254 462.734C899.553 466.781 895.941 470.514 891.849 470.157C885.342 469.589 882.62 460.247 876.175 459.178C875.607 459.044 875.01 459.103 874.479 459.346C873.523 459.871 873.357 461.151 873.303 462.241C873.039 467.59 872.811 473.152 874.899 478.084C877.954 485.299 885.846 491.358 884.19 499.016C875.272 494.871 870.636 484.87 868.53 475.264C866.425 465.658 866.074 455.573 862.301 446.492C859.435 450.164 853.412 447.128 850.794 443.275C848.312 439.622 846.784 435.397 844.376 431.695C841.967 427.993 838.278 424.678 833.867 424.474C829.241 424.261 825.23 427.435 821.702 430.434C818.801 432.9 815.822 435.463 814.127 438.873C811.659 443.833 812.305 449.682 812.186 455.221C812.057 461.21 810.788 467.528 806.706 471.912C802.625 476.297 795.091 477.824 790.589 473.872C788.239 471.81 787.101 468.728 786.087 465.769C781.201 451.509 777.132 436.982 773.899 422.258C773.143 425.619 770.192 429.95 767.373 427.971C766.74 427.438 766.228 426.778 765.869 426.033C760.611 417.121 750.873 411.776 741.034 408.57C731.195 405.365 720.844 403.87 711.114 400.347C705.661 398.373 700.454 395.779 695.593 392.616C694.354 394.437 693.63 396.558 693.499 398.757C693.367 400.955 693.833 403.148 694.847 405.103C697.005 408.924 701.889 411.135 706.07 409.8C708.23 409.109 710.055 407.61 712.198 406.869C714.342 406.128 717.219 406.492 718.157 408.557C719.054 410.534 717.698 412.925 718.37 414.99C719.395 418.133 724.136 418.375 725.794 421.236C727.028 423.365 726.013 426.191 724.252 427.909C722.49 429.626 720.14 430.568 717.99 431.764C711.014 435.643 706.053 442.265 699.956 447.417C693.86 452.57 685.258 456.331 677.992 453.026C679.724 444.256 669.277 437.818 667.355 429.087C666.722 426.213 667.05 423.161 666.147 420.361C664.84 416.306 661.242 413.518 658.291 410.446C654.712 406.679 651.924 402.233 650.091 397.371C648.258 392.508 647.417 387.328 647.619 382.136C647.778 378.528 648.441 374.861 647.619 371.344C646.797 367.827 643.885 364.423 640.277 364.582C632.036 364.946 621.654 365.559 617.33 358.534C615.787 356.027 615.115 352.354 617.347 350.433C618.92 349.078 621.244 349.206 623.311 349.409L641.879 351.236C646.222 351.663 650.916 352.016 654.643 349.745C658.37 347.475 659.985 341.448 656.534 338.777C654.012 336.825 649.495 336.931 648.762 333.828C648.152 331.244 651.012 328.311 649.467 326.152C648.36 324.603 645.869 325.033 644.36 326.194C642.851 327.355 641.756 329.052 640.067 329.931C637.104 331.473 633.563 330.006 630.376 329.008C627.188 328.011 622.914 327.926 621.368 330.887C619.639 334.198 622.902 338.537 621.186 341.855C618.917 346.242 611.233 343.744 608.047 347.518C604.39 351.848 610.535 358.304 609.302 363.835C607.728 364.615 605.978 364.973 604.224 364.875C602.47 364.776 600.772 364.224 599.295 363.273C597.842 362.285 596.684 360.922 595.944 359.328C595.205 357.734 594.911 355.97 595.094 354.223C595.399 351.734 596.696 349.194 595.827 346.843C595.124 344.942 593.215 343.81 591.441 342.829L573.397 332.858C571.722 335.966 573.84 339.819 576.489 342.153C579.137 344.487 582.455 346.245 584.195 349.317C585.296 351.446 585.543 353.914 584.885 356.218C584.227 358.522 582.715 360.488 580.657 361.715C580.399 361.893 580.105 362.013 579.797 362.067C579.488 362.121 579.171 362.107 578.868 362.027C578.58 361.858 578.329 361.633 578.13 361.365C577.931 361.097 577.787 360.792 577.708 360.467C574.524 352.32 569.744 344.287 562.102 340.031C554.46 335.775 543.479 336.65 538.468 343.819C537.277 345.522 536.479 347.463 535.442 349.264C529.933 358.829 518.122 363.359 507.088 363.063C506.008 363.122 504.935 362.87 503.995 362.336C502.211 361.104 502.292 358.491 502.565 356.341L503.723 347.216C503.956 345.384 504.293 343.359 505.743 342.215C507.787 340.603 510.736 341.62 513.339 341.583C515.311 341.491 517.207 340.794 518.771 339.588C520.334 338.381 521.488 336.724 522.077 334.839C522.603 332.936 522.6 330.926 522.067 329.025C521.535 327.123 520.494 325.403 519.057 324.05C517.863 322.929 516.262 321.522 516.892 320.011C517.144 319.593 517.484 319.235 517.888 318.963C518.293 318.69 518.752 318.51 519.234 318.434C523.91 317.076 528.851 316.72 533.449 315.118C538.047 313.516 542.506 310.238 543.595 305.492C543.929 304.037 544.081 302.276 545.387 301.554C546.043 301.278 546.747 301.134 547.458 301.131C549.951 300.777 552.221 299.502 553.821 297.557C555.421 295.613 556.235 293.14 556.102 290.626C558.306 289.086 561.393 290.218 563.525 291.856C565.657 293.494 567.539 295.658 570.133 296.364C574.967 297.679 579.639 293.399 584.649 293.379C586.756 293.371 588.937 294.116 590.919 293.402C592.928 292.678 594.128 290.677 595.67 289.2C597.212 287.722 599.918 286.821 601.342 288.413L600.13 279.431C602.572 280.047 605.118 280.135 607.596 279.687C610.075 279.239 612.429 278.265 614.5 276.832L598.828 271.537C598.283 271.401 597.779 271.132 597.363 270.754C596.223 269.527 597.355 267.615 598.282 266.22C600.498 262.884 600.87 257.388 597.225 255.727C594.737 254.593 591.882 255.954 589.494 257.285L578.055 263.663C577.692 265.838 580.351 267.07 581.998 268.534C582.995 269.42 583.701 270.587 584.022 271.882C584.344 273.176 584.266 274.538 583.8 275.787C583.333 277.037 582.5 278.116 581.409 278.883C580.318 279.65 579.021 280.07 577.687 280.086C578.44 281.065 578.964 282.202 579.218 283.41C579.473 284.619 579.452 285.87 579.158 287.07L571.462 287.624C570.598 287.797 569.701 287.622 568.966 287.136C568.143 286.405 568.254 285.124 568.063 284.04C567.603 281.423 565.041 279.589 562.425 279.119C559.81 278.648 557.135 279.251 554.545 279.846C553.446 280.242 552.238 280.214 551.158 279.768C550.539 279.366 550.068 278.772 549.818 278.077C548.683 275.324 549.744 272.088 551.567 269.734C553.391 267.38 555.887 265.659 558.129 263.7C563.49 258.996 567.428 252.887 569.5 246.062C573.737 244.287 578.123 241.875 582.36 240.1C588.892 236.793 596.217 235.373 603.511 236.002L617.859 236.276C622.107 236.357 626.47 236.461 630.398 238.08C634.326 239.7 637.777 243.203 638.049 247.443C638.13 247.923 638.089 248.416 637.928 248.875C637.767 249.335 637.492 249.746 637.129 250.07C636.574 250.373 635.946 250.515 635.315 250.479C631.353 250.618 629.664 251.605 625.702 251.745Z" stroke="#007BFF" stroke-width="4" mask="url(#path-26-inside-6)"/>
<mask id="path-27-inside-7" fill="white">
<path d="M511.339 296.712C511.899 296.181 512.303 295.507 512.505 294.762C512.707 294.017 512.699 293.23 512.484 292.489C511.119 291.963 509.636 291.828 508.199 292.099C506.762 292.37 505.43 293.037 504.352 294.025C503.502 294.885 502.769 295.853 502.173 296.905C500.288 299.981 498.62 303.655 499.713 307.094C499.802 307.469 499.965 307.822 500.192 308.133C500.42 308.444 500.707 308.707 501.037 308.905C501.527 309.102 502.055 309.185 502.581 309.147C504.658 309.145 506.733 309.017 508.795 308.765C510.061 308.61 511.531 308.252 512.021 307.075C512.664 305.526 511.107 303.774 511.561 302.16C511.86 301.438 512.312 300.79 512.887 300.261C513.172 299.995 513.391 299.666 513.527 299.3C513.663 298.934 513.711 298.542 513.669 298.154C513.486 297.396 512.326 296.967 511.909 297.625"/>
</mask>
<path d="M512.484 292.489L514.404 291.93L514.127 290.98L513.204 290.623L512.484 292.489ZM504.352 294.025L503.001 292.55L502.964 292.584L502.929 292.619L504.352 294.025ZM502.173 296.905L503.878 297.95L503.896 297.921L503.913 297.891L502.173 296.905ZM499.713 307.094L501.659 306.632L501.641 306.559L501.619 306.488L499.713 307.094ZM501.037 308.905L500.007 310.619L500.144 310.702L500.292 310.761L501.037 308.905ZM502.581 309.147L502.579 307.147L502.509 307.147L502.44 307.152L502.581 309.147ZM508.795 308.765L509.038 310.75L509.038 310.75L508.795 308.765ZM512.021 307.075L510.174 306.307L510.174 306.307L512.021 307.075ZM511.561 302.16L509.713 301.395L509.668 301.505L509.636 301.618L511.561 302.16ZM512.887 300.261L514.241 301.733L514.247 301.728L514.252 301.723L512.887 300.261ZM513.669 298.154L515.657 297.936L515.643 297.809L515.613 297.684L513.669 298.154ZM512.714 298.164C513.541 297.381 514.137 296.385 514.435 295.285L510.574 294.238C510.469 294.628 510.257 294.982 509.964 295.26L512.714 298.164ZM514.435 295.285C514.733 294.185 514.722 293.024 514.404 291.93L510.563 293.048C510.676 293.436 510.68 293.848 510.574 294.238L514.435 295.285ZM513.204 290.623C511.492 289.963 509.63 289.794 507.828 290.134L508.57 294.064C509.641 293.862 510.747 293.963 511.763 294.355L513.204 290.623ZM507.828 290.134C506.025 290.474 504.353 291.311 503.001 292.55L505.702 295.5C506.506 294.764 507.499 294.267 508.57 294.064L507.828 290.134ZM502.929 292.619C501.955 293.604 501.116 294.714 500.433 295.919L503.913 297.891C504.422 296.993 505.048 296.165 505.774 295.431L502.929 292.619ZM500.468 295.86C498.583 298.935 496.417 303.326 497.807 307.699L501.619 306.488C500.823 303.985 501.992 301.027 503.878 297.95L500.468 295.86ZM497.767 307.556C497.917 308.19 498.193 308.788 498.578 309.314L501.807 306.953C501.736 306.857 501.686 306.747 501.659 306.632L497.767 307.556ZM498.578 309.314C498.962 309.84 499.448 310.284 500.007 310.619L502.068 307.191C501.966 307.13 501.877 307.049 501.807 306.953L498.578 309.314ZM500.292 310.761C501.063 311.071 501.894 311.201 502.723 311.142L502.44 307.152C502.215 307.168 501.991 307.133 501.782 307.049L500.292 310.761ZM502.584 311.147C504.741 311.144 506.896 311.012 509.038 310.75L508.552 306.78C506.57 307.022 504.575 307.145 502.579 307.147L502.584 311.147ZM509.038 310.75C509.732 310.665 510.645 310.509 511.499 310.137C512.369 309.757 513.357 309.071 513.868 307.842L510.174 306.307C510.195 306.256 510.203 306.338 509.9 306.47C509.58 306.61 509.123 306.71 508.552 306.78L509.038 310.75ZM513.868 307.842C514.506 306.305 513.993 304.778 513.776 304.063C513.469 303.046 513.45 302.83 513.486 302.701L509.636 301.618C509.218 303.104 509.751 304.571 509.948 305.221C510.077 305.65 510.146 305.907 510.17 306.116C510.192 306.295 510.165 306.327 510.174 306.307L513.868 307.842ZM513.409 302.924C513.597 302.471 513.88 302.065 514.241 301.733L511.533 298.789C510.744 299.515 510.123 300.405 509.713 301.395L513.409 302.924ZM514.252 301.723C514.764 301.244 515.158 300.653 515.402 299.996L511.652 298.604C511.624 298.678 511.58 298.745 511.522 298.799L514.252 301.723ZM515.402 299.996C515.646 299.338 515.733 298.633 515.657 297.936L511.681 298.371C511.689 298.45 511.679 298.53 511.652 298.604L515.402 299.996ZM515.613 297.684C515.32 296.474 514.352 295.738 513.5 295.458C512.647 295.178 511.105 295.158 510.22 296.553L513.597 298.696C513.4 299.007 513.091 299.199 512.796 299.269C512.537 299.331 512.346 299.289 512.253 299.259C512.131 299.219 511.834 299.076 511.725 298.624L515.613 297.684Z" fill="#007BFF" mask="url(#path-27-inside-7)"/>
<path d="M516.513 283.397L516.448 283.395C516.229 283.388 516.012 283.431 515.812 283.52C515.663 283.648 515.555 283.818 515.502 284.008L515.498 284.022L515.494 284.036C515.171 285.073 515.25 286.193 515.716 287.174C516.172 288.134 516.965 288.891 517.942 289.302C518.691 289.483 519.408 289.775 520.069 290.17L520.121 290.201L520.169 290.239C521.367 291.168 521.498 292.552 521.48 293.638C521.474 293.999 521.448 294.394 521.424 294.76C521.413 294.939 521.401 295.111 521.393 295.269C521.366 295.789 521.364 296.238 521.424 296.633C521.539 297.397 521.915 298.105 522.38 298.982C522.468 299.147 522.559 299.319 522.652 299.498C523.186 300.526 523.791 301.825 523.527 303.303C523.357 304.256 522.821 305.125 522.414 305.785C522.348 305.893 522.285 305.995 522.228 306.091C521.754 306.883 521.56 307.38 521.642 307.861L516.513 283.397ZM516.513 283.397L516.578 283.39M516.513 283.397L516.578 283.39M516.578 283.39C518.345 283.212 520.129 283.323 521.861 283.718C523.364 284.146 524.178 284.776 524.67 285.463C525.184 286.181 525.431 287.072 525.6 288.179C525.662 288.588 525.711 289.002 525.762 289.439C525.781 289.595 525.799 289.754 525.819 289.917C525.893 290.522 525.98 291.162 526.117 291.804C526.393 293.097 526.881 294.436 527.918 295.643L527.947 295.677L527.979 295.708C528.598 296.31 529.169 296.961 529.686 297.654C530.102 298.452 530.323 299.338 530.329 300.239L530.33 300.264L530.331 300.289C530.463 302.551 530.159 304.817 529.438 306.965L529.424 307.006L529.414 307.048C529.192 307.966 528.649 308.772 527.885 309.323C527.079 309.645 526.199 309.737 525.343 309.587L525.296 309.579M516.578 283.39L525.296 309.579M525.296 309.579L525.249 309.575M525.296 309.579L525.249 309.575M525.249 309.575C524.363 309.505 523.447 309.342 522.746 309.025M525.249 309.575L522.746 309.025M522.746 309.025C522.053 308.712 521.722 308.328 521.642 307.861L522.746 309.025Z" stroke="#007BFF" stroke-width="2"/>
</svg>
